<?xml version="1.0" encoding="UTF-8"?>
<svg version="1.1" xmlns="http://www.w3.org/2000/svg" width="536" height="411">
<path d="M0 0 C176.88 0 353.76 0 536 0 C536 135.63 536 271.26 536 411 C359.12 411 182.24 411 0 411 C0 275.37 0 139.74 0 0 Z " fill="#FDFEFE" transform="translate(0,0)"/>
<path d="M0 0 C7.59 0 15.18 0 23 0 C28.59722222 11.19444444 28.59722222 11.19444444 30.6875 16.375 C32.2839414 20.33093136 32.2839414 20.33093136 34.14453125 24.1640625 C35 26 35 26 35 29 C35.66 29 36.32 29 37 29 C37.12383057 28.2776416 37.24766113 27.5552832 37.37524414 26.81103516 C37.99503742 24.02232868 38.86849128 21.64396844 39.99609375 19.0234375 C40.38990234 18.105625 40.78371094 17.1878125 41.18945312 16.2421875 C41.60130859 15.29601562 42.01316406 14.34984375 42.4375 13.375 C42.84548828 12.42109375 43.25347656 11.4671875 43.67382812 10.484375 C45.27415121 6.77726443 46.75448051 3.36827924 49 0 C51.43017578 -0.34057617 51.43017578 -0.34057617 54.4453125 -0.29296875 C55.52167969 -0.28330078 56.59804688 -0.27363281 57.70703125 -0.26367188 C59.39892578 -0.2259668 59.39892578 -0.2259668 61.125 -0.1875 C62.26066406 -0.17396484 63.39632812 -0.16042969 64.56640625 -0.14648438 C67.37807387 -0.11104319 70.18880417 -0.06163517 73 0 C74.65707226 3.70341075 76.29862826 7.41350328 77.9375 11.125 C78.40607422 12.17171875 78.87464844 13.2184375 79.35742188 14.296875 C80.0293457 15.82441406 80.0293457 15.82441406 80.71484375 17.3828125 C81.12855225 18.31496582 81.54226074 19.24711914 81.96850586 20.20751953 C83.05106607 23.13824702 83.58331448 25.90974851 84 29 C86.69683075 27.65158463 86.90317386 26.31451493 88.05859375 23.5546875 C88.44466797 22.64203125 88.83074219 21.729375 89.22851562 20.7890625 C89.62748047 19.82742187 90.02644531 18.86578125 90.4375 17.875 C90.83259766 16.9365625 91.22769531 15.998125 91.63476562 15.03125 C92.38122643 13.25762931 93.12494736 11.48285111 93.86499023 9.70654297 C95.22506516 6.46330988 96.61463759 3.23251229 98 0 C105.92 0 113.84 0 122 0 C121.18087961 4.09560195 120.21080349 7.23232157 118.63671875 11.04296875 C118.16169922 12.19990234 117.68667969 13.35683594 117.19726562 14.54882812 C116.69904297 15.74958984 116.20082031 16.95035156 115.6875 18.1875 C114.71197964 20.55588253 113.73671516 22.92437047 112.76171875 25.29296875 C112.2915332 26.43137207 111.82134766 27.56977539 111.33691406 28.74267578 C109.82395276 32.42893028 108.34499863 36.12767604 106.88256836 39.83422852 C105.64916773 42.86092201 104.29985154 45.83007353 102.9296875 48.796875 C101.80083264 51.47197643 100.91817651 54.24547048 100 57 C90.43 57 80.86 57 71 57 C67.7 48.75 64.4 40.5 61 32 C57.73949566 38.96562292 54.54324615 45.90327679 51.76171875 53.07421875 C51 55 51 55 50 57 C40.76 57 31.52 57 22 57 C16.95479257 45.31636173 12.03456847 33.58229725 7.16894531 21.82275391 C6.43617277 20.05326433 5.70145083 18.2845794 4.96386719 16.51708984 C4.09395752 14.43084232 3.2328338 12.34123531 2.375 10.25 C1.90835937 9.12078125 1.44171875 7.9915625 0.9609375 6.828125 C-0 4 -0 4 0 0 Z " fill="#035B9D" transform="translate(0,213)"/>
<path d="M0 0 C0.99501022 -0.00960754 1.99002045 -0.01921509 3.0151825 -0.02911377 C4.62765617 -0.03548859 4.62765617 -0.03548859 6.27270508 -0.04199219 C7.93587517 -0.0505423 7.93587517 -0.0505423 9.63264465 -0.05926514 C11.98213751 -0.0687178 14.33164363 -0.07525017 16.68115234 -0.07910156 C20.26073661 -0.088782 23.83974058 -0.11979325 27.41918945 -0.15136719 C29.70369126 -0.15789992 31.98819716 -0.16314933 34.27270508 -0.16699219 C35.33756638 -0.17933899 36.40242767 -0.19168579 37.4995575 -0.20440674 C44.26077546 -0.18433188 50.90987993 0.0693363 56.04223633 5.03613281 C58.42048727 9.79263469 58.27711815 14.87942376 58.30786133 20.09472656 C58.3135614 20.85028336 58.31926147 21.60584015 58.32513428 22.3842926 C58.33454798 23.97696548 58.34110376 25.56965751 58.3449707 27.16235352 C58.3546914 29.5874238 58.38575406 32.01165113 58.41723633 34.43652344 C58.42376608 35.98925282 58.42901666 37.54198821 58.43286133 39.09472656 C58.44520813 39.81365585 58.45755493 40.53258514 58.47027588 41.27330017 C58.44964328 45.97673662 57.60318871 49.1759148 55.10473633 53.16113281 C50.90780037 56.20391138 47.324358 57.28237558 42.19360352 57.32226562 C40.69624664 57.33667694 40.69624664 57.33667694 39.16864014 57.35137939 C38.09052063 57.35562927 37.01240112 57.35987915 35.90161133 57.36425781 C34.23488373 57.37280792 34.23488373 57.37280792 32.53448486 57.38153076 C30.18079582 57.39098267 27.82709354 57.3975155 25.47338867 57.40136719 C21.88281965 57.41105702 18.29282684 57.44207289 14.70239258 57.47363281 C12.41463556 57.48016457 10.12687444 57.48541436 7.83911133 57.48925781 C6.76908875 57.50160461 5.69906616 57.51395142 4.59661865 57.52667236 C-2.16352063 57.50660221 -7.25566216 56.95149397 -12.77026367 52.72363281 C-15.69060016 48.66760991 -15.07280251 43.4192805 -15.09838867 38.63378906 C-15.10408875 37.80785751 -15.10978882 36.98192596 -15.11566162 36.13096619 C-15.12509159 34.3868843 -15.13163763 32.64278475 -15.13549805 30.89868164 C-15.1452167 28.23650015 -15.17626362 25.57508684 -15.20776367 22.91308594 C-15.2142931 21.21582488 -15.21954381 19.51855832 -15.22338867 17.82128906 C-15.23573547 17.02844009 -15.24808228 16.23559113 -15.26080322 15.41871643 C-15.24234539 10.82132129 -14.81629157 7.92620088 -11.89526367 4.16113281 C-8.11232245 0.85105924 -4.95292065 0.03864015 0 0 Z " fill="#045A9C" transform="translate(289.895263671875,212.8388671875)"/>
<path d="M0 0 C1.25244003 0.00424484 2.50488007 0.00848969 3.79527283 0.01286316 C7.09483705 0.02673191 10.39394608 0.05359605 13.69335938 0.0869751 C17.07220951 0.11788668 20.45112678 0.13141312 23.83007812 0.14648438 C30.43769824 0.17943989 37.04493305 0.23116393 43.65234375 0.29296875 C43.65234375 5.24296875 43.65234375 10.19296875 43.65234375 15.29296875 C28.14234375 15.29296875 12.63234375 15.29296875 -3.34765625 15.29296875 C-3.34765625 17.27296875 -3.34765625 19.25296875 -3.34765625 21.29296875 C-2.4254126 21.2772583 -1.50316895 21.26154785 -0.55297852 21.24536133 C2.90801756 21.19386682 6.36859945 21.15644265 9.82983398 21.12817383 C11.32045973 21.11319833 12.81104226 21.09281056 14.30151367 21.06665039 C33.49109454 20.73856838 33.49109454 20.73856838 40.65234375 26.85546875 C44.13768734 31.10323126 43.90182464 34.7325584 43.96484375 40.04296875 C44.00834961 41.24179688 44.00834961 41.24179688 44.05273438 42.46484375 C44.1102269 47.84260648 43.5158215 51.22352207 39.65234375 55.29296875 C33.0544651 57.98086624 26.31009192 57.54714759 19.28125 57.48828125 C18.00378403 57.48545135 16.72631805 57.48262146 15.41014099 57.47970581 C12.03500797 57.47043882 8.66015171 57.45250941 5.28509521 57.43029785 C1.83266576 57.40973738 -1.61979243 57.40068241 -5.07226562 57.390625 C-11.83081472 57.36861786 -18.58919767 57.33411518 -25.34765625 57.29296875 C-25.34765625 52.67296875 -25.34765625 48.05296875 -25.34765625 43.29296875 C-2.57765625 42.79796875 -2.57765625 42.79796875 20.65234375 42.29296875 C20.65234375 40.64296875 20.65234375 38.99296875 20.65234375 37.29296875 C19.16238892 37.27109497 19.16238892 37.27109497 17.64233398 37.2487793 C13.93136914 37.19048713 10.2209916 37.11325845 6.51049805 37.03051758 C4.90935856 36.99741283 3.30810643 36.96933654 1.70678711 36.9465332 C-0.60481442 36.91271893 -2.91539703 36.86039424 -5.2265625 36.8046875 C-5.934142 36.79829758 -6.6417215 36.79190765 -7.3707428 36.7853241 C-13.82232485 36.59757345 -19.51755767 34.73665944 -24.34765625 30.29296875 C-24.34765625 29.63296875 -24.34765625 28.97296875 -24.34765625 28.29296875 C-25.00765625 28.29296875 -25.66765625 28.29296875 -26.34765625 28.29296875 C-26.45610652 25.25033608 -26.53517688 22.21160671 -26.59765625 19.16796875 C-26.63117188 18.31203125 -26.6646875 17.45609375 -26.69921875 16.57421875 C-26.76240879 12.46686622 -26.51576768 9.68974788 -24.89453125 5.86328125 C-18.27109187 -0.82111002 -8.81988705 -0.11377134 0 0 Z " fill="#045A9D" transform="translate(379.34765625,212.70703125)"/>
<path d="M0 0 C7.26 0 14.52 0 22 0 C22.495 20.295 22.495 20.295 23 41 C31.91 41 40.82 41 50 41 C50.33 27.47 50.66 13.94 51 0 C58.26 0 65.52 0 73 0 C73.04593683 6.60214377 73.08575543 13.20373191 73.10986328 19.8059082 C73.11991444 22.05137004 73.13355744 24.29681881 73.15087891 26.54223633 C73.17516581 29.77167997 73.18649207 33.00095038 73.1953125 36.23046875 C73.20563507 37.23272995 73.21595764 38.23499115 73.22659302 39.2676239 C73.22674408 40.20822159 73.22689514 41.14881927 73.22705078 42.11791992 C73.231492 42.94176682 73.23593323 43.76561371 73.24050903 44.61442566 C72.8233717 48.75195056 71.66305922 51.3548613 68.6875 54.25 C64.5790668 56.92525883 60.66621167 57.12359582 55.84594727 57.16113281 C54.84463272 57.17074036 53.84331818 57.1803479 52.81166077 57.19024658 C51.74072678 57.19449646 50.66979279 57.19874634 49.56640625 57.203125 C48.45571274 57.20882507 47.34501923 57.21452515 46.20066833 57.22039795 C43.8547358 57.22983082 41.50879012 57.23637511 39.1628418 57.24023438 C35.57902962 57.24995516 31.99578744 57.28100163 28.41210938 57.3125 C26.13021173 57.31902906 23.84831 57.32427991 21.56640625 57.328125 C20.49749649 57.3404718 19.42858673 57.3528186 18.32728577 57.36553955 C11.38996912 57.34481256 7.08101972 56.60453049 1.64941406 52.01293945 C-0.8887942 47.376464 -0.49322806 42.99146529 -0.390625 37.79296875 C-0.38213531 36.17217155 -0.38213531 36.17217155 -0.37347412 34.51863098 C-0.35112043 31.07446611 -0.30092391 27.63134935 -0.25 24.1875 C-0.22993379 21.84962442 -0.21168323 19.5117325 -0.1953125 17.17382812 C-0.15466404 11.44849213 -0.07636717 5.72541634 0 0 Z " fill="#035B9E" transform="translate(128,213)"/>
<path d="M0 0 C2.37013648 1.06512206 3.53267038 2.30414397 5.1796875 4.3046875 C5.96085937 5.23087891 5.96085937 5.23087891 6.7578125 6.17578125 C7.9296875 7.8671875 7.9296875 7.8671875 7.9296875 9.8671875 C6.2331543 11.07226562 6.2331543 11.07226562 3.87890625 12.3984375 C3.03521484 12.87925781 2.19152344 13.36007813 1.32226562 13.85546875 C0.42958984 14.35433594 -0.46308594 14.85320312 -1.3828125 15.3671875 C-3.12930907 16.35605973 -4.87541886 17.34561547 -6.62109375 18.3359375 C-7.79152222 18.99239258 -7.79152222 18.99239258 -8.9855957 19.66210938 C-10.72016733 20.66478481 -12.40328219 21.75583396 -14.0703125 22.8671875 C-12.71922284 25.83044694 -11.18324602 28.07503915 -9.0078125 30.4921875 C-8.38519531 31.18957031 -7.76257813 31.88695312 -7.12109375 32.60546875 C-5.72425497 34.14598238 -4.32574959 35.68498611 -2.92578125 37.22265625 C17.3898927 59.6019188 17.3898927 59.6019188 17.1953125 75.265625 C16.44830355 85.39418754 11.21520334 92.09954355 3.9296875 98.8671875 C1.05594975 101.10798834 -1.94825896 102.99395538 -5.0703125 104.8671875 C-6.9047754 106.05294178 -8.73806494 107.2405129 -10.5703125 108.4296875 C-14.04417203 110.62036577 -17.52688608 112.79060156 -21.0703125 114.8671875 C-21.7715625 115.2796875 -22.4728125 115.6921875 -23.1953125 116.1171875 C-25.0703125 116.8671875 -25.0703125 116.8671875 -28.0703125 115.8671875 C-29.67578125 114.23828125 -29.67578125 114.23828125 -31.2578125 112.3046875 C-31.78761719 111.66402344 -32.31742187 111.02335937 -32.86328125 110.36328125 C-33.26160156 109.86957031 -33.65992188 109.37585938 -34.0703125 108.8671875 C-32.60580537 105.09113123 -30.79970795 103.799449 -27.30859375 101.84375 C-26.35404297 101.2971875 -25.39949219 100.750625 -24.41601562 100.1875 C-23.41505859 99.62804687 -22.41410156 99.06859375 -21.3828125 98.4921875 C-7.61302206 91.26454897 -7.61302206 91.26454897 0.9296875 78.8671875 C2.00465491 71.46431915 0.77300804 66.16518356 -3.0703125 59.8671875 C-3.38226563 59.15433594 -3.69421875 58.44148438 -4.015625 57.70703125 C-4.99711478 55.52171304 -4.99711478 55.52171304 -8.0703125 54.8671875 C-9.47265625 53.51171875 -9.47265625 53.51171875 -11.0078125 51.6796875 C-11.61109375 50.968125 -12.214375 50.2565625 -12.8359375 49.5234375 C-13.57328125 48.646875 -14.310625 47.7703125 -15.0703125 46.8671875 C-16.06374232 45.70976722 -17.05863811 44.55360421 -18.0546875 43.3984375 C-23.73568752 36.80431113 -23.73568752 36.80431113 -25.73022461 34.44799805 C-26.9420405 33.01850126 -28.16935687 31.60218005 -29.3984375 30.1875 C-31.34965528 27.4795015 -31.58373849 25.33551354 -31.69921875 22.02734375 C-30.30581462 17.24130349 -26.8661458 14.39579961 -22.87109375 11.7421875 C-21.14439453 10.8140625 -21.14439453 10.8140625 -19.3828125 9.8671875 C-18.14118376 9.19277294 -16.90030279 8.51697997 -15.66015625 7.83984375 C-15.05284668 7.51129395 -14.44553711 7.18274414 -13.81982422 6.84423828 C-10.50116091 4.99086254 -7.33193544 2.88719575 -4.15625 0.80078125 C-2.0703125 -0.1328125 -2.0703125 -0.1328125 0 0 Z " fill="#07599B" transform="translate(492.0703125,125.1328125)"/>
<path d="M0 0 C4.00509575 2.00254787 6.06796361 5.58105163 8.5 9.25 C3.90605727 12.37920737 -0.71702656 15.41620069 -5.5 18.25 C-18.05509306 25.01286602 -18.05509306 25.01286602 -26.13671875 36.16796875 C-27.47569729 43.84189951 -26.88641814 50.68720049 -22.5 57.25 C-20.12170396 59.90128306 -17.63323319 62.36403337 -15.05078125 64.81640625 C-12.71135476 67.04835526 -10.52094134 69.3330844 -8.375 71.75 C-7.81554687 72.3790625 -7.25609375 73.008125 -6.6796875 73.65625 C-5.5 75.25 -5.5 75.25 -5.5 77.25 C-4.51 77.58 -3.52 77.91 -2.5 78.25 C-0.45703125 80.54296875 -0.45703125 80.54296875 1.6875 83.4375 C2.40292969 84.37980469 3.11835938 85.32210937 3.85546875 86.29296875 C5.76971637 89.73497694 6.12830583 91.37460966 5.5 95.25 C2.87314845 99.87276809 0.31453498 102.41974787 -4.21875 105.15234375 C-5.31574219 105.81427734 -6.41273438 106.47621094 -7.54296875 107.15820312 C-8.11063965 107.49086182 -8.67831055 107.82352051 -9.26318359 108.16625977 C-11.00665875 109.19141531 -12.7318238 110.24328323 -14.45703125 111.29882812 C-22.88294315 116.31378039 -22.88294315 116.31378039 -25.75097656 116.01733398 C-27.84936651 115.09672544 -29.14359214 114.00574737 -30.75 112.375 C-31.27078125 111.86195313 -31.7915625 111.34890625 -32.328125 110.8203125 C-33.5 109.25 -33.5 109.25 -33.5 106.25 C-32.41460937 105.64671875 -31.32921875 105.0434375 -30.2109375 104.421875 C-28.76555301 103.61471223 -27.32024454 102.80741332 -25.875 102 C-25.16214844 101.60425781 -24.44929688 101.20851563 -23.71484375 100.80078125 C-19.5116727 98.44854791 -15.46901045 95.97947722 -11.5 93.25 C-12.98848812 89.85655558 -14.9326862 87.46770033 -17.4375 84.75 C-18.23671875 83.87601562 -19.0359375 83.00203125 -19.859375 82.1015625 C-21.67984383 80.13567161 -23.50282526 78.1723232 -25.328125 76.2109375 C-43.07052758 57.09814986 -43.07052758 57.09814986 -42.875 44.8125 C-42.88660156 44.08740234 -42.89820313 43.36230469 -42.91015625 42.61523438 C-42.85892699 33.1122063 -38.1974509 26.36811815 -31.9296875 19.5390625 C-25.68052573 13.5701322 -17.91053371 9.64351574 -10.45019531 5.40380859 C-8.62264351 4.32256049 -6.87880729 3.17208969 -5.1328125 1.96484375 C-2.5 0.25 -2.5 0.25 0 0 Z " fill="#075A9B" transform="translate(474.5,105.75)"/>
<path d="M0 0 C20.79 0 41.58 0 63 0 C63 4.95 63 9.9 63 15 C56.07 15 49.14 15 42 15 C42 28.86 42 42.72 42 57 C34.74 57 27.48 57 20 57 C20 43.14 20 29.28 20 15 C13.4 15 6.8 15 0 15 C0 10.05 0 5.1 0 0 Z " fill="#045DA2" transform="translate(206,213)"/>
<path d="M0 0 C9.24 0 18.48 0 28 0 C28 8.25 28 16.5 28 25 C24.04 25 20.08 25 16 25 C16 26.98 16 28.96 16 31 C19.96 31 23.92 31 28 31 C28 32.32 28 33.64 28 35 C24.04 35 20.08 35 16 35 C16 36.98 16 38.96 16 41 C20.62 41 25.24 41 30 41 C30 42.32 30 43.64 30 45 C19.11 45 8.22 45 -3 45 C-3 43.68 -3 42.36 -3 41 C1.95 41 6.9 41 12 41 C12 39.02 12 37.04 12 35 C3.28305527 35.83122685 -4.65989516 36.73097877 -12.765625 40.29296875 C-15.2952889 41.09343932 -16.53712975 40.88685924 -19 40 C-19 39.01 -19 38.02 -19 37 C-15.535 36.505 -15.535 36.505 -12 36 C-12 31.05 -12 26.1 -12 21 C-14.31 21 -16.62 21 -19 21 C-19 20.01 -19 19.02 -19 18 C-16.69 18 -14.38 18 -12 18 C-12 14.37 -12 10.74 -12 7 C-14.64 7 -17.28 7 -20 7 C-20 5.68 -20 4.36 -20 3 C-13.4 3 -6.8 3 0 3 C0 2.01 0 1.02 0 0 Z " fill="#F1F0F0" transform="translate(227,288)"/>
<path d="M0 0 C3.10205831 1.49754539 5.11805427 3.93589978 7.3515625 6.484375 C7.83359131 7.02465332 8.31562012 7.56493164 8.81225586 8.12158203 C22.64220637 23.75624287 22.64220637 23.75624287 22.34765625 35.34765625 C20.9273064 47.48355688 12.1500886 58.3802774 4.0390625 66.984375 C4.0390625 63.73904663 4.72419895 62.01065351 5.9765625 59.046875 C9.45002784 50.79272619 10.72382365 42.04435771 8.2734375 33.23046875 C5.40181316 26.93109565 0.82591835 22.14196116 -3.94921875 17.234375 C-5.9609375 14.984375 -5.9609375 14.984375 -5.9609375 12.984375 C-6.9509375 12.654375 -7.9409375 12.324375 -8.9609375 11.984375 C-10.7109375 10.109375 -10.7109375 10.109375 -11.9609375 7.984375 C-10.75570702 4.36868356 -9.88908186 4.03767955 -6.6484375 2.234375 C-5.86855469 1.78578125 -5.08867187 1.3371875 -4.28515625 0.875 C-1.9609375 -0.015625 -1.9609375 -0.015625 0 0 Z " fill="#075B9D" transform="translate(508.9609375,144.015625)"/>
<path d="M0 0 C1.16080078 -0.00128906 2.32160156 -0.00257813 3.51757812 -0.00390625 C4.74025391 -0.00003906 5.96292969 0.00382813 7.22265625 0.0078125 C8.44146484 0.00394531 9.66027344 0.00007812 10.91601562 -0.00390625 C12.65915039 -0.00197266 12.65915039 -0.00197266 14.4375 0 C15.50991943 0.00112793 16.58233887 0.00225586 17.68725586 0.00341797 C20.28515625 0.1328125 20.28515625 0.1328125 22.28515625 1.1328125 C22.31408482 5.09113059 22.33193052 9.04942167 22.34765625 13.0078125 C22.35603516 14.13574219 22.36441406 15.26367188 22.37304688 16.42578125 C22.37788086 18.04033203 22.37788086 18.04033203 22.3828125 19.6875 C22.39066772 21.17999268 22.39066772 21.17999268 22.39868164 22.70263672 C22.28515625 25.1328125 22.28515625 25.1328125 21.28515625 27.1328125 C16.80600297 27.16167588 12.32687334 27.17956437 7.84765625 27.1953125 C6.56826172 27.20369141 5.28886719 27.21207031 3.97070312 27.22070312 C2.14829102 27.22553711 2.14829102 27.22553711 0.2890625 27.23046875 C-0.83685303 27.23570557 -1.96276855 27.24094238 -3.12280273 27.24633789 C-5.71484375 27.1328125 -5.71484375 27.1328125 -6.71484375 26.1328125 C-6.81443996 24.29122227 -6.84564786 22.44584283 -6.84765625 20.6015625 C-6.84894531 19.48136719 -6.85023438 18.36117187 -6.8515625 17.20703125 C-6.84769531 16.02753906 -6.84382813 14.84804687 -6.83984375 13.6328125 C-6.84371094 12.45332031 -6.84757812 11.27382812 -6.8515625 10.05859375 C-6.85027344 8.93839844 -6.84898437 7.81820312 -6.84765625 6.6640625 C-6.84652832 5.62830078 -6.84540039 4.59253906 -6.84423828 3.52539062 C-6.59698 -1.04655502 -3.98738631 0.0041982 0 0 Z " fill="#F5FCFC" transform="translate(303.71484375,227.8671875)"/>
<path d="M0 0 C0 3.19203638 -0.5808662 4.54586331 -1.9375 7.375 C-5.69868736 15.65492837 -6.30034354 23.83939126 -3.4375 32.5625 C-0.30636177 40.41255224 5.01676475 46.17018104 11 52 C13.03634582 54.30301016 15.02467803 56.64454734 17 59 C13.71533863 62.67882073 10.33639092 64.75150101 6 67 C4 67 4 67 2.625 65.63671875 C2.08875 64.99347656 1.5525 64.35023438 1 63.6875 C-1.95922175 60.18234216 -5.03823289 56.83533903 -8.1875 53.5 C-15.19405256 45.70427714 -17.92164178 40.44457125 -17.56640625 29.71875 C-15.7521767 17.80739461 -7.85166046 8.62576783 0 0 Z " fill="#095A9A" transform="translate(427,137)"/>
<path d="M0 0 C1.32 0 2.64 0 4 0 C4 6.93 4 13.86 4 21 C10.93 21 17.86 21 25 21 C25 22.32 25 23.64 25 25 C19.72 25 14.44 25 9 25 C9.33 30.94 9.66 36.88 10 43 C12.97 43 15.94 43 19 43 C19.33 41.02 19.66 39.04 20 37 C21.65 37.66 23.3 38.32 25 39 C25.34890022 42.14010198 25.32786478 43.55416898 23.42578125 46.140625 C20.16330954 48.64132795 18.01015742 48.53426 13.9375 48.5 C12.70902344 48.5103125 11.48054688 48.520625 10.21484375 48.53125 C7 48 7 48 5.31738281 46.26464844 C3.80113196 43.65813567 3.6495203 42.22494455 3.70703125 39.234375 C3.71669922 38.34492188 3.72636719 37.45546875 3.73632812 36.5390625 C3.76146484 35.61867188 3.78660156 34.69828125 3.8125 33.75 C3.83280273 32.34621094 3.83280273 32.34621094 3.85351562 30.9140625 C3.88880046 28.60878673 3.93809719 26.3046894 4 24 C2.02 24 0.04 24 -2 24 C-1.94199219 24.6290625 -1.88398438 25.258125 -1.82421875 25.90625 C-1.4658902 32.70425457 -2.57199162 36.80432183 -7 42 C-10.9319121 46.19708757 -14.03374253 48.70896305 -20 49 C-20.66 47.35 -21.32 45.7 -22 44 C-21.13375 43.7525 -20.2675 43.505 -19.375 43.25 C-15.44100656 41.79296539 -13.09606104 40.89414402 -10 38 C-8.27810874 33.71121529 -7.1678347 29.49167192 -6 25 C-10.95 25 -15.9 25 -21 25 C-21 23.68 -21 22.36 -21 21 C-14.07 21 -7.14 21 0 21 C0 14.07 0 7.14 0 0 Z " fill="#161311" transform="translate(341,286)"/>
<path d="M0 0 C8.58 0 17.16 0 26 0 C26 2.64 26 5.28 26 8 C25.01 8.33 24.02 8.66 23 9 C23 7.02 23 5.04 23 3 C16.73 2.67 10.46 2.34 4 2 C3.67 8.27 3.34 14.54 3 21 C6.96 20.505 6.96 20.505 11 20 C11.33 18.35 11.66 16.7 12 15 C12.99 15.33 13.98 15.66 15 16 C15 17.65 15 19.3 15 21 C18.465 20.505 18.465 20.505 22 20 C22.66 18.02 23.32 16.04 24 14 C24.66 14 25.32 14 26 14 C26 17.3 26 20.6 26 24 C22.37 24 18.74 24 15 24 C15 25.98 15 27.96 15 30 C18.96 30 22.92 30 27 30 C27 31.32 27 32.64 27 34 C23.04 34 19.08 34 15 34 C15 35.98 15 37.96 15 40 C19.62 40 24.24 40 29 40 C29 41.32 29 42.64 29 44 C18.11 44 7.22 44 -4 44 C-4 42.68 -4 41.36 -4 40 C0.95 40 5.9 40 11 40 C11 38.02 11 36.04 11 34 C7.04 34 3.08 34 -1 34 C-1 32.68 -1 31.36 -1 30 C2.96 30 6.92 30 11 30 C11 28.02 11 26.04 11 24 C7.37 24 3.74 24 0 24 C0 16.08 0 8.16 0 0 Z " fill="#2D2A28" transform="translate(228,289)"/>
<path d="M0 0 C13.2 0 26.4 0 40 0 C40 1.65 40 3.3 40 5 C34.06 5 28.12 5 22 5 C22 15.56 22 26.12 22 37 C29.26 37 36.52 37 44 37 C44 38.32 44 39.64 44 41 C27.83 41 11.66 41 -5 41 C-5 39.68 -5 38.36 -5 37 C2.59 37 10.18 37 18 37 C18 26.44 18 15.88 18 5 C12.06 5 6.12 5 0 5 C0 3.35 0 1.7 0 0 Z " fill="#070506" transform="translate(268,290)"/>
<path d="M0 0 C0.66 1.65 1.32 3.3 2 5 C-0.64 5.33 -3.28 5.66 -6 6 C-6 9.3 -6 12.6 -6 16 C-3.03 16 -0.06 16 3 16 C3 17.32 3 18.64 3 20 C0.36 20 -2.28 20 -5 20 C-5 21.32 -5 22.64 -5 24 C-3.8553125 24.0928125 -3.8553125 24.0928125 -2.6875 24.1875 C0 25 0 25 1.8125 27.4375 C3 30 3 30 3 32 C0.525 32.495 0.525 32.495 -2 33 C-2.66 31.68 -3.32 30.36 -4 29 C-4.33 35.6 -4.66 42.2 -5 49 C-6.65 49 -8.3 49 -10 49 C-10.33 43.39 -10.66 37.78 -11 32 C-11.78375 33.32 -12.5675 34.64 -13.375 36 C-14.7109375 38.25 -14.7109375 38.25 -16 40 C-16.66 40 -17.32 40 -18 40 C-18 39.34 -18 38.68 -18 38 C-18.99 37.67 -19.98 37.34 -21 37 C-20.61328125 36.52691406 -20.2265625 36.05382812 -19.828125 35.56640625 C-15.96496429 30.66095713 -13.28393999 25.80389455 -11 20 C-13.64 20 -16.28 20 -19 20 C-19 18.68 -19 17.36 -19 16 C-16.03 16 -13.06 16 -10 16 C-10 13.36 -10 10.72 -10 8 C-12.64 8.33 -15.28 8.66 -18 9 C-18.33 7.68 -18.66 6.36 -19 5 C-16.39741676 4.16142312 -13.79314353 3.32896656 -11.1875 2.5 C-10.08051758 2.14228516 -10.08051758 2.14228516 -8.95117188 1.77734375 C-5.86744804 0.80059864 -3.25504191 0 0 0 Z " fill="#26231D" transform="translate(392,286)"/>
<path d="M0 0 C8.91 0 17.82 0 27 0 C27 8.25 27 16.5 27 25 C26.67 25 26.34 25 26 25 C26 21.7 26 18.4 26 15 C23.64214682 15.89335797 23.64214682 15.89335797 22.875 19.0625 C22.441875 20.5165625 22.441875 20.5165625 22 22 C19.69 22 17.38 22 15 22 C15 20.35 15 18.7 15 17 C14.34 17 13.68 17 13 17 C12.01 19.475 12.01 19.475 11 22 C8.36 22 5.72 22 3 22 C3 15.4 3 8.8 3 2 C9.93 2.33 16.86 2.66 24 3 C24 4.98 24 6.96 24 9 C24.66 9 25.32 9 26 9 C26 6.36 26 3.72 26 1 C17.42 1 8.84 1 0 1 C0 0.67 0 0.34 0 0 Z " fill="#4B4646" transform="translate(228,288)"/>
<path d="M0 0 C2.92937654 1.81310142 5.43647949 3.87295899 7 7 C7.12339449 11.56559624 6.83352347 14.99486876 3.875 18.5625 C0.32260965 20.33869517 -2.07244796 20.36366223 -6 20 C-10.10047683 18.63317439 -10.9534939 16.74016633 -13 13 C-13.58683636 9.87020606 -13.66611671 8.05447996 -11.94140625 5.32421875 C-8.22096644 0.69850871 -5.91997659 -0.68307422 0 0 Z " fill="#DCF0F7" transform="translate(441,266)"/>
<path d="M0 0 C1.32 0 2.64 0 4 0 C4 9.9 4 19.8 4 30 C6.64 29.34 9.28 28.68 12 28 C12.33 29.32 12.66 30.64 13 32 C10.03 32.66 7.06 33.32 4 34 C4 38.95 4 43.9 4 49 C2.68 49 1.36 49 0 49 C0 44.38 0 39.76 0 35 C-1.04800781 35.28875 -2.09601563 35.5775 -3.17578125 35.875 C-4.55463366 36.25019793 -5.93354289 36.62518705 -7.3125 37 C-8.00279297 37.19078125 -8.69308594 37.3815625 -9.40429688 37.578125 C-12.35787949 38.37716184 -14.92559219 39 -18 39 C-18.33 37.35 -18.66 35.7 -19 34 C-16.58424393 33.49521515 -14.16755639 32.99602358 -11.75 32.5 C-11.06808594 32.35691406 -10.38617188 32.21382813 -9.68359375 32.06640625 C-6.35366879 31.38748951 -3.41667449 31 0 31 C0 20.77 0 10.54 0 0 Z " fill="#181515" transform="translate(410,286)"/>
<path d="M0 0 C6.27 0 12.54 0 19 0 C19 1.32 19 2.64 19 4 C16.69 4 14.38 4 12 4 C12 7.63 12 11.26 12 15 C13.65 15 15.3 15 17 15 C17 15.99 17 16.98 17 18 C15.35 18 13.7 18 12 18 C12.33 21.96 12.66 25.92 13 30 C14.65 29.67 16.3 29.34 18 29 C18.33 30.32 18.66 31.64 19 33 C16.75438718 33.86762314 14.50473745 34.7192103 12.25 35.5625 C11.29867187 35.9327832 11.29867187 35.9327832 10.328125 36.31054688 C6.88990821 37.58197079 4.47831118 38.46686355 1 37 C1 36.01 1 35.02 1 34 C4.465 33.505 4.465 33.505 8 33 C8 28.05 8 23.1 8 18 C5.69 18 3.38 18 1 18 C1 17.01 1 16.02 1 15 C3.31 15 5.62 15 8 15 C8 11.37 8 7.74 8 4 C5.36 4 2.72 4 0 4 C0 2.68 0 1.36 0 0 Z " fill="#0D0D0D" transform="translate(207,291)"/>
<path d="M0 0 C7.26 0 14.52 0 22 0 C22.495 20.295 22.495 20.295 23 41 C35.87 41.495 35.87 41.495 49 42 C49 42.33 49 42.66 49 43 C35.635 43.495 35.635 43.495 22 44 C20.30803496 40.61606992 20.88013451 36.77522209 20.90234375 33.0546875 C20.9037587 32.1696756 20.90517365 31.2846637 20.90663147 30.37283325 C20.9122386 27.54018809 20.92479229 24.70762136 20.9375 21.875 C20.94251408 19.95703239 20.94707715 18.03906354 20.95117188 16.12109375 C20.96136037 11.41400782 20.98093437 6.70709192 21 2 C15.06 2.33 9.12 2.66 3 3 C3.33 19.17 3.66 35.34 4 52 C4.66 52 5.32 52 6 52 C6 52.66 6 53.32 6 54 C2.83884224 52.63016497 2.0072908 52.0109362 0 49 C-0.24050903 46.77900696 -0.24050903 46.77900696 -0.22705078 44.16137695 C-0.22689972 43.1805867 -0.22674866 42.19979645 -0.22659302 41.18928528 C-0.21627045 40.13295395 -0.20594788 39.07662262 -0.1953125 37.98828125 C-0.1924826 36.90491989 -0.18965271 35.82155853 -0.18673706 34.70536804 C-0.17553091 31.24096692 -0.15042534 27.77682315 -0.125 24.3125 C-0.11497077 21.96549852 -0.10584482 19.618493 -0.09765625 17.27148438 C-0.0772907 11.5141437 -0.03814225 5.75736035 0 0 Z " fill="#155C8F" transform="translate(128,213)"/>
<path d="M0 0 C6.93 0 13.86 0 21 0 C21 1.32 21 2.64 21 4 C15.72 4 10.44 4 5 4 C5.33 9.94 5.66 15.88 6 22 C8.97 22 11.94 22 15 22 C15.33 20.02 15.66 18.04 16 16 C17.65 16.66 19.3 17.32 21 18 C21.34890022 21.14010198 21.32786478 22.55416898 19.42578125 25.140625 C16.16330954 27.64132795 14.01015742 27.53426 9.9375 27.5 C8.70902344 27.5103125 7.48054688 27.520625 6.21484375 27.53125 C3 27 3 27 1.31738281 25.25805664 C-0.18534552 22.68230899 -0.35116019 21.29507353 -0.29296875 18.33984375 C-0.28330078 17.46392578 -0.27363281 16.58800781 -0.26367188 15.68554688 C-0.23853516 14.77869141 -0.21339844 13.87183594 -0.1875 12.9375 C-0.17396484 12.02677734 -0.16042969 11.11605469 -0.14648438 10.17773438 C-0.1203566 8.48938241 -0.08806373 6.80110651 -0.04760742 5.11303711 C-0.00921603 3.40904996 0 1.70441958 0 0 Z " fill="#191718" transform="translate(345,307)"/>
<path d="M0 0 C20.46 0 40.92 0 62 0 C62 4.62 62 9.24 62 14 C55.4 14 48.8 14 42 14 C42 13.67 42 13.34 42 13 C47.94 13 53.88 13 60 13 C60 9.7 60 6.4 60 3 C40.53 3 21.06 3 1 3 C1 5.64 1 8.28 1 11 C2.57201172 10.96519531 2.57201172 10.96519531 4.17578125 10.9296875 C5.55468037 10.91092697 6.9335872 10.89272707 8.3125 10.875 C9.00279297 10.85824219 9.69308594 10.84148437 10.40429688 10.82421875 C14.17135396 10.78782206 15.78431704 10.85621136 19 13 C18 14 18 14 16.23413086 14.11352539 C15.48526611 14.10828857 14.73640137 14.10305176 13.96484375 14.09765625 C13.15595703 14.09443359 12.34707031 14.09121094 11.51367188 14.08789062 C10.66353516 14.07951172 9.81339844 14.07113281 8.9375 14.0625 C8.08349609 14.05798828 7.22949219 14.05347656 6.34960938 14.04882812 C4.23304337 14.03700373 2.11651315 14.01906769 0 14 C0 9.38 0 4.76 0 0 Z " fill="#085089" transform="translate(207,213)"/>
<path d="M0 0 C8.58 0 17.16 0 26 0 C26 2.64 26 5.28 26 8 C25.01 8.33 24.02 8.66 23 9 C23 7.02 23 5.04 23 3 C16.73 2.67 10.46 2.34 4 2 C3.67 8.27 3.34 14.54 3 21 C6.96 20.505 6.96 20.505 11 20 C11.33 18.35 11.66 16.7 12 15 C12.99 15.33 13.98 15.66 15 16 C15 17.65 15 19.3 15 21 C18.465 20.505 18.465 20.505 22 20 C22.66 18.02 23.32 16.04 24 14 C24.66 14 25.32 14 26 14 C26 17.3 26 20.6 26 24 C22.37 24 18.74 24 15 24 C15 25.98 15 27.96 15 30 C13.68 29.67 12.36 29.34 11 29 C11 27.35 11 25.7 11 24 C7.37 24 3.74 24 0 24 C0 16.08 0 8.16 0 0 Z " fill="#090607" transform="translate(228,289)"/>
<path d="M0 0 C13.2 0 26.4 0 40 0 C40 1.65 40 3.3 40 5 C34.06 5 28.12 5 22 5 C22 15.56 22 26.12 22 37 C21.67 37 21.34 37 21 37 C20.67 30.07 20.34 23.14 20 16 C19.67 16 19.34 16 19 16 C18.505 11.05 18.505 11.05 18 6 C12.06 5.67 6.12 5.34 0 5 C0 3.35 0 1.7 0 0 Z " fill="#454545" transform="translate(268,290)"/>
<path d="M0 0 C0.33 0 0.66 0 1 0 C1 13.86 1 27.72 1 42 C-5.93 42 -12.86 42 -20 42 C-20 28.47 -20 14.94 -20 1 C-19.34 1 -18.68 1 -18 1 C-18 1.99 -18 2.98 -18 4 C-17.34 4 -16.68 4 -16 4 C-15.95048212 8.4840341 -15.91422474 12.96792239 -15.89013672 17.45214844 C-15.88009256 18.97691623 -15.86645469 20.50166484 -15.84912109 22.02636719 C-15.82480262 24.22075138 -15.81350111 26.41488042 -15.8046875 28.609375 C-15.79421387 29.92905273 -15.78374023 31.24873047 -15.77294922 32.60839844 C-16 36 -16 36 -18 40 C-12.06 40 -6.12 40 0 40 C0 26.8 0 13.6 0 0 Z " fill="#065490" transform="translate(246,228)"/>
<path d="M0 0 C0.66 1.65 1.32 3.3 2 5 C-0.64 5.33 -3.28 5.66 -6 6 C-6 9.3 -6 12.6 -6 16 C-3.36 16 -0.72 16 2 16 C2 16.99 2 17.98 2 19 C0.7625 19.144375 -0.475 19.28875 -1.75 19.4375 C-4.56504499 19.78688502 -7.2701497 20.20379366 -10 21 C-10 20.34 -10 19.68 -10 19 C-12.97 19.33 -15.94 19.66 -19 20 C-19 18.68 -19 17.36 -19 16 C-16.03 16 -13.06 16 -10 16 C-10 13.36 -10 10.72 -10 8 C-12.64 8.33 -15.28 8.66 -18 9 C-18.33 7.68 -18.66 6.36 -19 5 C-16.39741676 4.16142312 -13.79314353 3.32896656 -11.1875 2.5 C-10.08051758 2.14228516 -10.08051758 2.14228516 -8.95117188 1.77734375 C-5.86744804 0.80059864 -3.25504191 0 0 0 Z " fill="#0E0E0E" transform="translate(392,286)"/>
<path d="M0 0 C0.33 0 0.66 0 1 0 C2.93029813 10.3968533 2.93029813 10.3968533 0 15.3125 C-3.62551745 20.19339053 -7.44270676 24.34905263 -13.4375 25.875 C-14.7059375 25.936875 -14.7059375 25.936875 -16 26 C-16.66 24.35 -17.32 22.7 -18 21 C-17.13375 20.7525 -16.2675 20.505 -15.375 20.25 C-11.44100656 18.79296539 -9.09606104 17.89414402 -6 15 C-4.27810874 10.71121529 -3.1678347 6.49167192 -2 2 C-6.95 2 -11.9 2 -17 2 C-17 1.67 -17 1.34 -17 1 C-15.85660156 1.01160156 -14.71320313 1.02320313 -13.53515625 1.03515625 C-12.04427246 1.04453288 -10.55338691 1.05363321 -9.0625 1.0625 C-8.30775391 1.07087891 -7.55300781 1.07925781 -6.77539062 1.08789062 C-4.85005687 1.09652441 -2.92464419 1.05224333 -1 1 C-0.67 0.67 -0.34 0.34 0 0 Z " fill="#171516" transform="translate(337,309)"/>
<path d="M0 0 C1.51223648 0.00666183 1.51223648 0.00666183 3.05502319 0.01345825 C4.19605499 0.01360931 5.33708679 0.01376038 6.51269531 0.01391602 C8.36741959 0.02939987 8.36741959 0.02939987 10.25961304 0.04519653 C12.15313004 0.04944138 12.15313004 0.04944138 14.0848999 0.05377197 C17.44201998 0.06308772 20.79886965 0.08106068 24.15591431 0.10317993 C27.58108176 0.12363353 31.00627713 0.13277264 34.43148804 0.14285278 C41.15291724 0.16494445 47.87421827 0.19844527 54.59555054 0.24050903 C54.59555054 0.90050903 54.59555054 1.56050903 54.59555054 2.24050903 C51.46039865 3.28555966 49.39775733 3.32864355 46.11434937 3.26223755 C44.99341385 3.24214127 43.87247833 3.22204498 42.71757507 3.20133972 C41.50812729 3.17430466 40.2986795 3.14726959 39.05258179 3.11941528 C37.81384811 3.09580429 36.57511444 3.0721933 35.29884338 3.04786682 C32.00916541 2.98422072 28.71962321 2.9160155 25.43008423 2.84561157 C22.07190316 2.77485754 18.71360736 2.71008292 15.35531616 2.64480591 C8.76860778 2.51555802 2.18204314 2.38029989 -4.40444946 2.24050903 C-2.40444946 0.24050903 -2.40444946 0.24050903 0 0 Z " fill="#125083" transform="translate(368.4044494628906,212.75949096679688)"/>
<path d="M0 0 C0.66 0 1.32 0 2 0 C2 3.3 2 6.6 2 10 C-1.63 10 -5.26 10 -9 10 C-9 11.98 -9 13.96 -9 16 C-10.32 15.67 -11.64 15.34 -13 15 C-13 13.35 -13 11.7 -13 10 C-16.63 10 -20.26 10 -24 10 C-24 9.67 -24 9.34 -24 9 C-18.555 8.505 -18.555 8.505 -13 8 C-12.67 5.69 -12.34 3.38 -12 1 C-11.01 1.33 -10.02 1.66 -9 2 C-9 3.65 -9 5.3 -9 7 C-5.535 6.505 -5.535 6.505 -2 6 C-1.34 4.02 -0.68 2.04 0 0 Z " fill="#1F1A18" transform="translate(252,303)"/>
<path d="M0 0 C0.33 0.99 0.66 1.98 1 3 C5.45885926 2.89055285 9.91684156 2.75982334 14.375 2.625 C15.64601563 2.5940625 16.91703125 2.563125 18.2265625 2.53125 C19.43828125 2.49257813 20.65 2.45390625 21.8984375 2.4140625 C23.01911621 2.3826416 24.13979492 2.3512207 25.29443359 2.31884766 C28.14710412 2.26588797 28.14710412 2.26588797 30 0 C31.97119141 -0.22705078 31.97119141 -0.22705078 34.3515625 -0.1953125 C35.20234375 -0.18886719 36.053125 -0.18242187 36.9296875 -0.17578125 C38.26386719 -0.15064453 38.26386719 -0.15064453 39.625 -0.125 C40.97078125 -0.11146484 40.97078125 -0.11146484 42.34375 -0.09765625 C44.56276586 -0.0740497 46.78125077 -0.0411231 49 0 C49 1.32 49 2.64 49 4 C32.83 4 16.66 4 0 4 C0 2.68 0 1.36 0 0 Z " fill="#302D2E" transform="translate(263,327)"/>
<path d="M0 0 C7.59 0 15.18 0 23 0 C23.06888343 7.31439965 23.12861574 14.62767306 23.16479492 21.94213867 C23.17987761 24.4301332 23.20034654 26.91810117 23.22631836 29.40600586 C23.26272337 32.98297688 23.27973184 36.55959622 23.29296875 40.13671875 C23.30845261 41.24834885 23.32393646 42.35997894 23.33988953 43.5052948 C23.34011612 44.54599625 23.34034271 45.58669769 23.34057617 46.65893555 C23.34723801 47.5716069 23.35389984 48.48427826 23.36076355 49.42460632 C22.91790267 52.5860707 21.86923684 54.42964314 20 57 C16.1496895 59.56687367 14.41430237 58.83288724 10 58 C10 57.67 10 57.34 10 57 C11.093125 56.731875 12.18625 56.46375 13.3125 56.1875 C17.35356287 54.95011667 17.35356287 54.95011667 20 52 C20.91416716 49.04253724 21.14724319 46.31793317 21.20532227 43.23144531 C21.22526749 42.29077209 21.24521271 41.35009888 21.26576233 40.38092041 C21.28247482 39.37349792 21.29918732 38.36607544 21.31640625 37.328125 C21.33718735 36.29057068 21.35796844 35.25301636 21.37937927 34.184021 C21.44471408 30.87274742 21.50368517 27.56139518 21.5625 24.25 C21.60570049 22.00389815 21.64931527 19.75780422 21.69335938 17.51171875 C21.8011579 12.00789193 21.90035123 6.50400457 22 1 C14.74 1 7.48 1 0 1 C0 0.67 0 0.34 0 0 Z " fill="#E3FDFE" transform="translate(179,212)"/>
<path d="M0 0 C2.45100479 3.67650719 2.30608354 6.48394312 2.30078125 10.73828125 C2.30506638 11.49666794 2.3093515 12.25505463 2.31376648 13.03642273 C2.31950713 14.64105228 2.32001198 16.24570785 2.31567383 17.8503418 C2.3125248 20.29326432 2.33593651 22.73496254 2.36132812 25.17773438 C2.3636024 26.73958181 2.36430402 28.30143249 2.36328125 29.86328125 C2.372491 30.58848465 2.38170074 31.31368805 2.39118958 32.06086731 C2.34866698 36.77537476 1.39889244 39.95427246 -1 44 C-2.32 43.67 -3.64 43.34 -5 43 C-3.515 42.505 -3.515 42.505 -2 42 C-1.34 28.14 -0.68 14.28 0 0 Z " fill="#1B5F9A" transform="translate(346,222)"/>
<path d="M0 0 C1.98 0 3.96 0 6 0 C4.8741386 3.53842155 3.66905241 6.66189518 2 10 C-7.24 10 -16.48 10 -26 10 C-27.35439668 7.29120665 -27.06501451 4.99066732 -27 2 C-26.01 2 -25.02 2 -24 2 C-24 2.66 -24 3.32 -24 4 C-24.66 4 -25.32 4 -26 4 C-25.67 5.32 -25.34 6.64 -25 8 C-16.42 8 -7.84 8 1 8 C0.67 7.34 0.34 6.68 0 6 C-0.039992 4.00039988 -0.04346799 1.99952758 0 0 Z " fill="#02518E" transform="translate(48,260)"/>
<path d="M0 0 C0.99 0 1.98 0 3 0 C6.20392474 5.26543128 6.52715819 9.69987882 6.6875 15.6875 C6.73874023 16.96850586 6.73874023 16.96850586 6.79101562 18.27539062 C7.17195343 28.17199942 7.17195343 28.17199942 2.5 33.6875 C1.6646875 34.68136719 0.829375 35.67523438 -0.03125 36.69921875 C-0.6809375 37.45847656 -1.330625 38.21773437 -2 39 C-2 35.75467163 -1.31486355 34.02627851 -0.0625 31.0625 C3.62053025 22.31035284 4.96001004 12.23200755 1.5 3.125 C1.005 2.09375 0.51 1.0625 0 0 Z " fill="#236593" transform="translate(515,172)"/>
<path d="M0 0 C6.93 0 13.86 0 21 0 C21 1.32 21 2.64 21 4 C14.4 4 7.8 4 1 4 C1 10.27 1 16.54 1 23 C0.67 23 0.34 23 0 23 C0 15.33333333 0 7.66666667 0 0 Z " fill="#5D5C5C" transform="translate(345,307)"/>
<path d="M0 0 C6.27 0 12.54 0 19 0 C19 1.32 19 2.64 19 4 C16.69 4 14.38 4 12 4 C12 7.63 12 11.26 12 15 C11.34 14.67 10.68 14.34 10 14 C9.62109375 12.1875 9.62109375 12.1875 9.4375 10 C9.37334592 7.21067942 9.37334592 7.21067942 8 5 C6.65252916 4.76924918 5.29622435 4.58846937 3.9375 4.4375 C2.638125 4.293125 1.33875 4.14875 0 4 C0 2.68 0 1.36 0 0 Z " fill="#252525" transform="translate(207,291)"/>
<path d="M0 0 C2.92937654 1.81310142 5.43647949 3.87295899 7 7 C7.12339449 11.56559624 6.83352347 14.99486876 3.875 18.5625 C0.32260965 20.33869517 -2.07244796 20.36366223 -6 20 C-10.10047683 18.63317439 -10.9534939 16.74016633 -13 13 C-13.58683636 9.87020606 -13.66611671 8.05447996 -11.94140625 5.32421875 C-8.22096644 0.69850871 -5.91997659 -0.68307422 0 0 Z M-11 7 C-11.62491523 10.95779649 -11.61006839 13.00863886 -9.5 16.4375 C-5.97441116 18.64099302 -3.04985528 18.79669284 1 18 C3.66666667 16.66666667 3.66666667 16.66666667 5 14 C5.60443392 11.19082139 5.66040854 8.80242927 5 6 C2.45767292 3.00902696 0.8425303 2.15797443 -3 1.4375 C-7.13607554 2.21301416 -8.54999553 3.61322911 -11 7 Z " fill="#3B6178" transform="translate(441,266)"/>
<path d="M0 0 C6.6 0 13.2 0 20 0 C20 16.5 20 33 20 50 C18.68 50.66 17.36 51.32 16 52 C16 50.02 16 48.04 16 46 C16.66 46 17.32 46 18 46 C18.33 31.48 18.66 16.96 19 2 C12.73 2 6.46 2 0 2 C0 1.34 0 0.68 0 0 Z " fill="#04538D" transform="translate(180,214)"/>
<path d="M0 0 C0.66 0.33 1.32 0.66 2 1 C1.5155542 1.63446045 1.0311084 2.2689209 0.53198242 2.92260742 C-1.5428924 7.09054321 -1.47713221 10.64214175 -1.51171875 15.23828125 C-1.53864555 16.55943184 -1.53864555 16.55943184 -1.56611633 17.90727234 C-1.6201191 20.7089668 -1.65408266 23.51049187 -1.6875 26.3125 C-1.72068195 28.21682039 -1.75517243 30.12111846 -1.79101562 32.02539062 C-1.87583978 36.68347134 -1.94269874 41.3415027 -2 46 C-4.58490495 43.41509505 -4.25842316 41.63205365 -4.30354309 38.10795593 C-4.30263168 37.30276016 -4.30172028 36.49756439 -4.30078125 35.66796875 C-4.30506638 34.83920731 -4.3093515 34.01044586 -4.31376648 33.15657043 C-4.31951559 31.40053216 -4.32000577 29.64447007 -4.31567383 27.88842773 C-4.31252456 25.20840408 -4.33592753 22.52949558 -4.36132812 19.84960938 C-4.36360221 18.14323056 -4.3643041 16.43684878 -4.36328125 14.73046875 C-4.372491 13.93134567 -4.38170074 13.1322226 -4.39118958 12.30888367 C-4.34972973 7.290432 -3.72088297 3.72088297 0 0 Z " fill="#186095" transform="translate(279,216)"/>
<path d="M0 0 C0.33 0 0.66 0 1 0 C1.33 3.96 1.66 7.92 2 12 C3.65 11.67 5.3 11.34 7 11 C7.33 12.32 7.66 13.64 8 15 C5.75438718 15.86762314 3.50473745 16.7192103 1.25 17.5625 C0.61578125 17.80935547 -0.0184375 18.05621094 -0.671875 18.31054688 C-4.11009179 19.58197079 -6.52168882 20.46686355 -10 19 C-10 18.01 -10 17.02 -10 16 C-6.535 15.505 -6.535 15.505 -3 15 C-3 14.34 -3 13.68 -3 13 C-2.34 12.67 -1.68 12.34 -1 12 C-0.53101037 9.1840151 -0.53101037 9.1840151 -0.375 5.9375 C-0.30023438 4.83277344 -0.22546875 3.72804688 -0.1484375 2.58984375 C-0.09945312 1.73519531 -0.05046875 0.88054687 0 0 Z " fill="#141414" transform="translate(218,309)"/>
<path d="M0 0 C0.33 0 0.66 0 1 0 C1.33 2.97 1.66 5.94 2 9 C2.99 9 3.98 9 5 9 C5.66 9 6.32 9 7 9 C6.55990101 11.64059394 6.10504868 13.79573867 4.875 16.1875 C4.441875 17.0846875 4.441875 17.0846875 4 18 C4.33 18.66 4.66 19.32 5 20 C4.2575 19.9175 3.515 19.835 2.75 19.75 C-0.78157027 20.07105184 -1.76630364 21.35265617 -4 24 C-4.66 23.67 -5.32 23.34 -6 23 C-5.36578125 22.01902344 -4.7315625 21.03804687 -4.078125 20.02734375 C-1.74178851 15.93875488 -1.1573765 12.20065125 -0.75 7.5625 C-0.67265625 6.83095703 -0.5953125 6.09941406 -0.515625 5.34570312 C-0.3294329 3.56524115 -0.16265336 1.78276645 0 0 Z " fill="#E9F6F9" transform="translate(509,192)"/>
<path d="M0 0 C0.33 1.32 0.66 2.64 1 4 C-1.64 4 -4.28 4 -7 4 C-7 5.32 -7 6.64 -7 8 C-6.236875 8.061875 -5.47375 8.12375 -4.6875 8.1875 C-2 9 -2 9 -0.1875 11.4375 C1 14 1 14 1 16 C-0.65 16.33 -2.3 16.66 -4 17 C-4.66 15.68 -5.32 14.36 -6 13 C-6.33 19.6 -6.66 26.2 -7 33 C-7.33 33 -7.66 33 -8 33 C-8 23.1 -8 13.2 -8 3 C-5.36 3 -2.72 3 0 3 C0 2.01 0 1.02 0 0 Z " fill="#8A8784" transform="translate(394,302)"/>
<path d="M0 0 C2.475 0.99 2.475 0.99 5 2 C5.34862701 5.13764313 5.31908139 6.55966769 3.4375 9.15625 C0.10230218 11.67902784 -2.1202036 11.40295542 -6.25 11.25 C-7.51328125 11.21390625 -8.7765625 11.1778125 -10.078125 11.140625 C-11.52445312 11.07101562 -11.52445312 11.07101562 -13 11 C-12.67 10.01 -12.34 9.02 -12 8 C-9.03 8.33 -6.06 8.66 -3 9 C-3 8.34 -3 7.68 -3 7 C-2.34 6.67 -1.68 6.34 -1 6 C-0.34227572 2.97065509 -0.34227572 2.97065509 0 0 Z " fill="#161415" transform="translate(361,323)"/>
<path d="M0 0 C0.33 0 0.66 0 1 0 C2.70159453 11.52164009 2.70159453 11.52164009 -1 17 C-1.33 16.01 -1.66 15.02 -2 14 C-2.66 13.67 -3.32 13.34 -4 13 C-3.34 9.37 -2.68 5.74 -2 2 C-6.95 2 -11.9 2 -17 2 C-17 1.67 -17 1.34 -17 1 C-15.85660156 1.01160156 -14.71320313 1.02320313 -13.53515625 1.03515625 C-12.04427246 1.04453288 -10.55338691 1.05363321 -9.0625 1.0625 C-8.30775391 1.07087891 -7.55300781 1.07925781 -6.77539062 1.08789062 C-4.85005687 1.09652441 -2.92464419 1.05224333 -1 1 C-0.67 0.67 -0.34 0.34 0 0 Z " fill="#222121" transform="translate(337,309)"/>
<path d="M0 0 C2.64 0 5.28 0 8 0 C8.93423645 3.01031744 9.04449911 3.86650268 8 7 C8.38932856 9.14255793 8.38932856 9.14255793 9 11 C8.34 11 7.68 11 7 11 C6.34 9.35 5.68 7.7 5 6 C4.01 6 3.02 6 2 6 C2 7.65 2 9.3 2 11 C1.34 11 0.68 11 0 11 C0 7.37 0 3.74 0 0 Z " fill="#547F9D" transform="translate(434,271)"/>
<path d="M0 0 C10.89 0 21.78 0 33 0 C33 0.33 33 0.66 33 1 C32.01257813 1.06058594 31.02515625 1.12117188 30.0078125 1.18359375 C28.72648437 1.26738281 27.44515625 1.35117187 26.125 1.4375 C24.84882813 1.51871094 23.57265625 1.59992188 22.2578125 1.68359375 C19.11699848 1.79206027 19.11699848 1.79206027 17 3 C14.11629667 3.07194869 11.25760336 3.09291708 8.375 3.0625 C7.57320313 3.05798828 6.77140625 3.05347656 5.9453125 3.04882812 C3.96350994 3.03703168 1.98174567 3.01909605 0 3 C0 2.01 0 1.02 0 0 Z " fill="#060606" transform="translate(268,291)"/>
<path d="M0 0 C7.59 0 15.18 0 23 0 C23 0.66 23 1.32 23 2 C19.19427042 3.26857653 15.47260289 3.39951002 11.5 3.625 C10.34177734 3.70234375 10.34177734 3.70234375 9.16015625 3.78125 C5.79080206 3.9797908 3.23163169 4.07721056 0 3 C0 2.01 0 1.02 0 0 Z " fill="#16578B" transform="translate(0,213)"/>
<path d="M0 0 C2.475 0.99 2.475 0.99 5 2 C3.22054913 6.04420651 0.60470327 9.46078487 -2 13 C-3.32 12.34 -4.64 11.68 -6 11 C-4.02 7.37 -2.04 3.74 0 0 Z " fill="#2F2F2F" transform="translate(356,291)"/>
<path d="M0 0 C1.2065625 0.0309375 1.2065625 0.0309375 2.4375 0.0625 C2.1075 0.7225 1.7775 1.3825 1.4375 2.0625 C-1.54131427 3.05543809 -3.47737239 3.18369785 -6.5847168 3.17602539 C-7.60554855 3.17594986 -8.62638031 3.17587433 -9.67814636 3.17579651 C-10.77822525 3.17063522 -11.87830414 3.16547394 -13.01171875 3.16015625 C-14.1394722 3.1587413 -15.26722565 3.15732635 -16.42915344 3.15586853 C-20.03612912 3.1502647 -23.64304304 3.13771153 -27.25 3.125 C-29.69335848 3.11998549 -32.13671793 3.1154225 -34.58007812 3.11132812 C-40.57423987 3.10029403 -46.56836552 3.08355215 -52.5625 3.0625 C-52.5625 2.7325 -52.5625 2.4025 -52.5625 2.0625 C-51.95084488 2.05219254 -51.33918976 2.04188507 -50.70899963 2.03126526 C-44.36667684 1.92343255 -38.02450286 1.80881658 -31.68237305 1.69018555 C-29.31261292 1.6467619 -26.94282 1.60509251 -24.57299805 1.56518555 C-21.17486667 1.50766232 -17.77690157 1.44391697 -14.37890625 1.37890625 C-13.31225235 1.36219376 -12.24559845 1.34548126 -11.1466217 1.32826233 C-10.16568039 1.30831711 -9.18473907 1.28837189 -8.17407227 1.26782227 C-7.30581314 1.25227798 -6.43755402 1.2367337 -5.54298401 1.22071838 C-2.89127163 1.00887641 -2.8654345 0.06988865 0 0 Z " fill="#145E98" transform="translate(338.5625,266.9375)"/>
<path d="M0 0 C0.67408308 1.26691507 1.33900497 2.53870749 2 3.8125 C2.556875 4.87404297 2.556875 4.87404297 3.125 5.95703125 C4 8 4 8 4 11 C2.68 11.33 1.36 11.66 0 12 C-0.86658615 10.73760288 -1.71792059 9.46472499 -2.5625 8.1875 C-3.27599609 7.12595703 -3.27599609 7.12595703 -4.00390625 6.04296875 C-5 4 -5 4 -4 1 C-2 0 -2 0 0 0 Z " fill="#222222" transform="translate(331,292)"/>
<path d="M0 0 C0.8971875 0.309375 0.8971875 0.309375 1.8125 0.625 C0.389375 1.553125 0.389375 1.553125 -1.0625 2.5 C-4.13195109 4.44470969 -4.13195109 4.44470969 -6.1875 6.625 C-7.5075 6.625 -8.8275 6.625 -10.1875 6.625 C-10.5175 7.615 -10.8475 8.605 -11.1875 9.625 C-13.1675 9.955 -15.1475 10.285 -17.1875 10.625 C-17.5175 11.945 -17.8475 13.265 -18.1875 14.625 C-18.8475 14.295 -19.5075 13.965 -20.1875 13.625 C-18.70287786 9.29727795 -15.52018172 7.66733944 -11.75 5.5 C-10.58447214 4.81017163 -9.41910235 4.12007611 -8.25390625 3.4296875 C-6.73603516 2.53636719 -6.73603516 2.53636719 -5.1875 1.625 C-2.1875 -0.375 -2.1875 -0.375 0 0 Z " fill="#1A5D83" transform="translate(483.1875,130.375)"/>
<path d="M0 0 C0.66 0 1.32 0 2 0 C2 6.27 2 12.54 2 19 C1.01 19 0.02 19 -1 19 C-1.02683987 16.02077407 -1.04676037 13.04178705 -1.0625 10.0625 C-1.07087891 9.21236328 -1.07925781 8.36222656 -1.08789062 7.48632812 C-1.09111328 6.67744141 -1.09433594 5.86855469 -1.09765625 5.03515625 C-1.10289307 4.2862915 -1.10812988 3.53742676 -1.11352539 2.76586914 C-1 1 -1 1 0 0 Z " fill="#050401" transform="translate(384,316)"/>
<path d="M0 0 C2.31 0 4.62 0 7 0 C7 2.64 7 5.28 7 8 C4.69 8 2.38 8 0 8 C0 5.36 0 2.72 0 0 Z " fill="#E7E4E4" transform="translate(243,302)"/>
<path d="M0 0 C2.31 0 4.62 0 7 0 C7 2.64 7 5.28 7 8 C4.69 8 2.38 8 0 8 C0 5.36 0 2.72 0 0 Z " fill="#E6E3E3" transform="translate(232,302)"/>
<path d="M0 0 C7.92 0 15.84 0 24 0 C23.67 1.32 23.34 2.64 23 4 C22.34 4 21.68 4 21 4 C21 3.34 21 2.68 21 2 C14.4 2 7.8 2 1 2 C0.67 2.99 0.34 3.98 0 5 C0 3.35 0 1.7 0 0 Z " fill="#215880" transform="translate(98,213)"/>
<path d="M0 0 C1.61491028 3.22982057 1.07787102 6.75298007 1.02734375 10.296875 C1.01469081 11.99478958 1.00233035 13.69270636 0.99023438 15.390625 C0.96547316 18.06777797 0.93756489 20.74481674 0.90405273 23.421875 C0.8737195 26.00521547 0.85602996 28.58841244 0.83984375 31.171875 C0.82638412 31.96583679 0.8129245 32.75979858 0.79905701 33.57781982 C0.77867636 38.1252247 1.26735911 41.71518548 3 46 C1.68 45.67 0.36 45.34 -1 45 C-1.02527124 38.75204325 -1.04283344 32.50409959 -1.05493164 26.25610352 C-1.05997298 24.12881986 -1.06680591 22.00153969 -1.07543945 19.87426758 C-1.08751379 16.82372174 -1.09323014 13.77322155 -1.09765625 10.72265625 C-1.10281754 9.76537125 -1.10797882 8.80808624 -1.11329651 7.8217926 C-1.11337204 6.94095505 -1.11344757 6.06011749 -1.11352539 5.15258789 C-1.115746 4.37315323 -1.11796661 3.59371857 -1.12025452 2.79066467 C-1 1 -1 1 0 0 Z " fill="#C4EBFC" transform="translate(275,220)"/>
<path d="M0 0 C3.26008643 3.16952847 6.22237877 6.39937989 9 10 C7.02 10 5.04 10 3 10 C2.67 10.99 2.34 11.98 2 13 C1.01 12.67 0.02 12.34 -1 12 C-1.33 11.01 -1.66 10.02 -2 9 C-1.484375 8.62875 -0.96875 8.2575 -0.4375 7.875 C1.36319983 5.96826848 1.36319983 5.96826848 0.6875 2.8125 C0.460625 1.884375 0.23375 0.95625 0 0 Z " fill="#EBF9FC" transform="translate(417,188)"/>
<path d="M0 0 C-1.49920512 3.11373372 -3.08152136 6.12228205 -5 9 C-5.66 9 -6.32 9 -7 9 C-6.67 14.28 -6.34 19.56 -6 25 C-6.66 25 -7.32 25 -8 25 C-8.14584064 21.77131254 -8.23424106 18.54347635 -8.3125 15.3125 C-8.35439453 14.40048828 -8.39628906 13.48847656 -8.43945312 12.54882812 C-8.52444409 7.87432523 -8.52871136 5.71291901 -5.66796875 1.85546875 C-3 0 -3 0 0 0 Z " fill="#015188" transform="translate(362,215)"/>
<path d="M0 0 C0 0.66 0 1.32 0 2 C-1.65 2.33 -3.3 2.66 -5 3 C-4.34 3.66 -3.68 4.32 -3 5 C-6.63 5.66 -10.26 6.32 -14 7 C-14.33 5.35 -14.66 3.7 -15 2 C-13.43883181 1.66048381 -11.87598662 1.32867456 -10.3125 1 C-9.44238281 0.814375 -8.57226562 0.62875 -7.67578125 0.4375 C-5.06287036 0.01027953 -2.64186962 -0.07616201 0 0 Z " fill="#292725" transform="translate(406,318)"/>
<path d="M0 0 C0.33 0 0.66 0 1 0 C1.33 5.28 1.66 10.56 2 16 C2.33 16 2.66 16 3 16 C3 20 3 24 3 28 C2.01 28 1.02 28 0 28 C0 18.76 0 9.52 0 0 Z " fill="#0B0908" transform="translate(410,288)"/>
<path d="M0 0 C6.93 0.33 13.86 0.66 21 1 C20.01 1.495 20.01 1.495 19 2 C19 3.65 19 5.3 19 7 C18.51080078 6.27876953 18.51080078 6.27876953 18.01171875 5.54296875 C14.92602726 3.17627334 11.55844033 3.42700473 7.8125 3.3125 C7.06291016 3.27833984 6.31332031 3.24417969 5.54101562 3.20898438 C3.69453162 3.12665706 1.84729006 3.06164719 0 3 C0 2.01 0 1.02 0 0 Z " fill="#090706" transform="translate(320,307)"/>
<path d="M0 0 C2.31 0 4.62 0 7 0 C7 2.31 7 4.62 7 7 C4.69 7 2.38 7 0 7 C0 4.69 0 2.38 0 0 Z " fill="#FAF8F7" transform="translate(243,292)"/>
<path d="M0 0 C2.31 0 4.62 0 7 0 C7 2.31 7 4.62 7 7 C4.69 7 2.38 7 0 7 C0 4.69 0 2.38 0 0 Z " fill="#F9F8F8" transform="translate(232,292)"/>
<path d="M0 0 C-0.47348414 4.1666604 -1.04696841 6.92884715 -4 10 C-4.66 10 -5.32 10 -6 10 C-6 9.34 -6 8.68 -6 8 C-6.99 7.67 -7.98 7.34 -9 7 C-3.34042553 0 -3.34042553 0 0 0 Z " fill="#1B1A15" transform="translate(380,316)"/>
<path d="M0 0 C4.39158329 1.4638611 4.87947433 3.97831338 7 8 C5.35 8.66 3.7 9.32 2 10 C-2 4.25 -2 4.25 -2 2 C-1.34 2 -0.68 2 0 2 C0 1.34 0 0.68 0 0 Z " fill="#242422" transform="translate(398,304)"/>
<path d="M0 0 C5.57142857 5.14285714 5.57142857 5.14285714 6 9 C4.68 9.33 3.36 9.66 2 10 C-0.475 6.04 -0.475 6.04 -3 2 C-2.01 1.34 -1.02 0.68 0 0 Z " fill="#212121" transform="translate(400,290)"/>
<path d="M0 0 C5.072007 -0.04942365 10.14387394 -0.08573068 15.21606445 -0.10986328 C16.94167523 -0.11992326 18.66726895 -0.13357276 20.39282227 -0.15087891 C22.8726014 -0.17512754 25.35215523 -0.18648301 27.83203125 -0.1953125 C28.60400345 -0.20563507 29.37597565 -0.21595764 30.17134094 -0.22659302 C33.99281476 -0.22739422 35.74136107 -0.17242595 39 2 C38.67 2.66 38.34 3.32 38 4 C37.50145508 3.67854004 37.00291016 3.35708008 36.48925781 3.02587891 C33.08377013 1.62240115 29.80059295 1.64390763 26.171875 1.5859375 C25.42286926 1.56657135 24.67386353 1.5472052 23.90216064 1.5272522 C21.51822164 1.46764284 19.13423386 1.42114646 16.75 1.375 C15.13018769 1.33680299 13.51039532 1.29775025 11.890625 1.2578125 C7.92724594 1.16195687 3.96377181 1.07785754 0 1 C0 0.67 0 0.34 0 0 Z " fill="#03487C" transform="translate(376,235)"/>
<path d="M0 0 C0 0.99 0 1.98 0 3 C-1.98 3.33 -3.96 3.66 -6 4 C-6 3.34 -6 2.68 -6 2 C-8.64 2.99 -11.28 3.98 -14 5 C-14 4.34 -14 3.68 -14 3 C-14.99 2.67 -15.98 2.34 -17 2 C-14.73139163 1.4695592 -12.46001511 0.95094566 -10.1875 0.4375 C-8.29064453 0.00244141 -8.29064453 0.00244141 -6.35546875 -0.44140625 C-3 -1 -3 -1 0 0 Z " fill="#292425" transform="translate(423,315)"/>
<path d="M0 0 C0.99 0 1.98 0 3 0 C3.0809313 2.60478883 3.14045434 5.20706653 3.1875 7.8125 C3.21263672 8.55048828 3.23777344 9.28847656 3.26367188 10.04882812 C3.29296875 12.20703125 3.29296875 12.20703125 3 16 C2.01 16.99 1.02 17.98 0 19 C0 12.73 0 6.46 0 0 Z " fill="#080708" transform="translate(346,311)"/>
<path d="M0 0 C1.20272819 2.40545638 1.10071472 3.94996953 1.0625 6.625 C1.05347656 7.44226563 1.04445313 8.25953125 1.03515625 9.1015625 C1.02355469 9.72804688 1.01195312 10.35453125 1 11 C0.67 11 0.34 11 0 11 C0 8.69 0 6.38 0 4 C-2.64 4.33 -5.28 4.66 -8 5 C-8.33 3.68 -8.66 2.36 -9 1 C-2.25 -1.125 -2.25 -1.125 0 0 Z " fill="#242525" transform="translate(382,290)"/>
<path d="M0 0 C0.66 0 1.32 0 2 0 C2 2.97 2 5.94 2 9 C-1.63 9 -5.26 9 -9 9 C-9 8.34 -9 7.68 -9 7 C-5.535 6.505 -5.535 6.505 -2 6 C-1.34 4.02 -0.68 2.04 0 0 Z " fill="#0B0808" transform="translate(252,303)"/>
<path d="M0 0 C2.64 0 5.28 0 8 0 C8 1.98 8 3.96 8 6 C8.66 6 9.32 6 10 6 C10 7.98 10 9.96 10 12 C9.01 12.495 9.01 12.495 8 13 C7.34444881 15.52733235 7.34444881 15.52733235 7 18 C6.67 18 6.34 18 6 18 C6 12.39 6 6.78 6 1 C4.02 1 2.04 1 0 1 C0 0.67 0 0.34 0 0 Z " fill="#2E2829" transform="translate(244,291)"/>
<path d="M0 0 C0.33 0 0.66 0 1 0 C1 2.64 1 5.28 1 8 C0.21625 8.268125 -0.5675 8.53625 -1.375 8.8125 C-4.28114923 9.84814432 -4.28114923 9.84814432 -6 13 C-6.66 13 -7.32 13 -8 13 C-8 13.99 -8 14.98 -8 16 C-8.66 16 -9.32 16 -10 16 C-10.33 15.01 -10.66 14.02 -11 13 C-10.54109375 12.64808594 -10.0821875 12.29617187 -9.609375 11.93359375 C-5.16127195 8.35455285 -2.55263762 5.10527523 0 0 Z " fill="#26698E" transform="translate(493,204)"/>
<path d="M0 0 C2.71366031 2.204849 3.8914986 3.37611697 4.5 6.875 C3.8786022 10.75873625 2.45847314 12.96306259 0 16 C-0.66 16 -1.32 16 -2 16 C-1.625 13.5625 -1.625 13.5625 -1 11 C-0.34 10.67 0.32 10.34 1 10 C0.67 6.7 0.34 3.4 0 0 Z " fill="#124E7F" transform="translate(476,191)"/>
<path d="M0 0 C0.33 0 0.66 0 1 0 C1 5.94 1 11.88 1 18 C1.99 18 2.98 18 4 18 C5.35386936 19.65002828 6.68678142 21.3174387 8 23 C8.99 23.33 9.98 23.66 11 24 C11 24.66 11 25.32 11 26 C7.56072421 24.7580393 4.74792181 23.44259716 2 21 C2 20.34 2 19.68 2 19 C1.34 19 0.68 19 0 19 C0 12.73 0 6.46 0 0 Z " fill="#4F80A8" transform="translate(353,222)"/>
<path d="M0 0 C0.99 0 1.98 0 3 0 C3.33 4.29 3.66 8.58 4 13 C2.68 13 1.36 13 0 13 C0 8.71 0 4.42 0 0 Z " fill="#0C090A" transform="translate(410,322)"/>
<path d="M0 0 C2.875 2 2.875 2 5 4 C4 6 4 6 2 7 C1.67 6.01 1.34 5.02 1 4 C-1.64 3.67 -4.28 3.34 -7 3 C-7.33 3.99 -7.66 4.98 -8 6 C-8.33 4.68 -8.66 3.36 -9 2 C-5.48746854 -0.34168764 -4.13530644 -0.49623677 0 0 Z " fill="#C1DCE9" transform="translate(441,268)"/>
<path d="M0 0 C0.33 0 0.66 0 1 0 C1.33 3.96 1.66 7.92 2 12 C3.65 11.67 5.3 11.34 7 11 C7.33 12.32 7.66 13.64 8 15 C5.125 15.625 5.125 15.625 2 16 C0 14 0 14 -0.1953125 10.7421875 C-0.17210937 9.46601563 -0.14890625 8.18984375 -0.125 6.875 C-0.10695312 5.59367187 -0.08890625 4.31234375 -0.0703125 2.9921875 C-0.04710937 2.00476563 -0.02390625 1.01734375 0 0 Z " fill="#30302F" transform="translate(218,309)"/>
<path d="M0 0 C3.75376152 1.25125384 4.24073289 2.5652404 6 6 C6 6.66 6 7.32 6 8 C4.35 8.33 2.7 8.66 1 9 C0.01 6.36 -0.98 3.72 -2 1 C-1.34 0.67 -0.68 0.34 0 0 Z " fill="#1C1816" transform="translate(389,310)"/>
<path d="M0 0 C0 0.99 0 1.98 0 3 C-4.95 3 -9.9 3 -15 3 C-15.33 2.34 -15.66 1.68 -16 1 C-10.59255982 0.22750855 -5.46137814 -0.09752461 0 0 Z " fill="#060606" transform="translate(366,307)"/>
<path d="M0 0 C0.99 0.33 1.98 0.66 3 1 C2.67 1.33 2.34 1.66 2 2 C1.76572222 4.01594582 1.58663876 6.038474 1.4375 8.0625 C1.35371094 9.16722656 1.26992188 10.27195312 1.18359375 11.41015625 C1.09271484 12.69212891 1.09271484 12.69212891 1 14 C0.67 14 0.34 14 0 14 C-0.495 9.05 -0.495 9.05 -1 4 C-6.94 3.67 -12.88 3.34 -19 3 C-19 2.67 -19 2.34 -19 2 C-17.19402344 1.90912109 -17.19402344 1.90912109 -15.3515625 1.81640625 C-13.77602923 1.73200268 -12.20050904 1.64735459 -10.625 1.5625 C-9.8309375 1.52318359 -9.036875 1.48386719 -8.21875 1.44335938 C-3.97398779 1.31106596 -3.97398779 1.31106596 0 0 Z " fill="#3C3C3C" transform="translate(287,292)"/>
<path d="M0 0 C1.98 0 3.96 0 6 0 C4.8905928 3.48670834 3.73662334 6.77484237 2 10 C1.34 10 0.68 10 0 10 C0 6.7 0 3.4 0 0 Z " fill="#1C5D90" transform="translate(48,260)"/>
<path d="M0 0 C0.66 0.33 1.32 0.66 2 1 C0.68 4.3 -0.64 7.6 -2 11 C-2.66 11 -3.32 11 -4 11 C-4.66 8.69 -5.32 6.38 -6 4 C-4.02 2.68 -2.04 1.36 0 0 Z " fill="#E4F4FE" transform="translate(39,231)"/>
<path d="M0 0 C0.99 0 1.98 0 3 0 C2.37240135 2.92879371 1.41377341 5.36095629 0 8 C0.66 8 1.32 8 2 8 C2 8.66 2 9.32 2 10 C-1.36591866 8.55746343 -3.51047079 6.66735273 -6 4 C-5.67 3.34 -5.34 2.68 -5 2 C-3.68 2 -2.36 2 -1 2 C-0.67 1.34 -0.34 0.68 0 0 Z " fill="#025488" transform="translate(469,152)"/>
<path d="M0 0 C0.66 0.33 1.32 0.66 2 1 C2 8.92 2 16.84 2 25 C1.34 25 0.68 25 0 25 C0.00785522 24.10692139 0.00785522 24.10692139 0.01586914 23.19580078 C0.03661999 20.50554453 0.04965407 17.81530511 0.0625 15.125 C0.07087891 14.18785156 0.07925781 13.25070313 0.08789062 12.28515625 C0.09272461 10.94130859 0.09272461 10.94130859 0.09765625 9.5703125 C0.10289307 8.74289551 0.10812988 7.91547852 0.11352539 7.06298828 C0.13352138 4.93588243 0.13352138 4.93588243 -1 3 C-1.66 3 -2.32 3 -3 3 C-3 2.34 -3 1.68 -3 1 C-2.01 0.67 -1.02 0.34 0 0 Z " fill="#CCDEE7" transform="translate(431,135)"/>
<path d="M0 0 C0.66 0.66 1.32 1.32 2 2 C1.20335937 2.65355469 1.20335937 2.65355469 0.390625 3.3203125 C-3.87083897 6.91300657 -7.18134848 10.18480366 -10 15 C-10.33 13.68 -10.66 12.36 -11 11 C-10.34 11 -9.68 11 -9 11 C-9 9.68 -9 8.36 -9 7 C-7.03125 5.078125 -7.03125 5.078125 -4.5 3.25 C-3.6646875 2.63640625 -2.829375 2.0228125 -1.96875 1.390625 C-0.99421875 0.70226562 -0.99421875 0.70226562 0 0 Z " fill="#D4EDF6" transform="translate(446,120)"/>
<path d="M0 0 C0.99 0 1.98 0 3 0 C3 2.31 3 4.62 3 7 C2.34 7 1.68 7 1 7 C1 7.66 1 8.32 1 9 C-1.70879335 10.35439668 -4.00933268 10.06501451 -7 10 C-7 9.34 -7 8.68 -7 8 C-4.69 8 -2.38 8 0 8 C0 5.36 0 2.72 0 0 Z " fill="#100909" transform="translate(239,292)"/>
<path d="M0 0 C2.7597916 2.38345638 3.86308961 4.55006503 5 8 C5.1953125 10.89453125 5.1953125 10.89453125 5.125 13.8125 C5.10695313 14.78832031 5.08890625 15.76414063 5.0703125 16.76953125 C5.03550781 17.87361328 5.03550781 17.87361328 5 19 C4.67 19 4.34 19 4 19 C4 16.36 4 13.72 4 11 C3.01 11.33 2.02 11.66 1 12 C1.020625 10.7625 1.04125 9.525 1.0625 8.25 C1.06766681 5.3359175 0.93015558 2.79046673 0 0 Z " fill="#DDF3F7" transform="translate(489,185)"/>
<path d="M0 0 C0.66 1.65 1.32 3.3 2 5 C-0.64 5.33 -3.28 5.66 -6 6 C-6 5.34 -6 4.68 -6 4 C-6.66 3.34 -7.32 2.68 -8 2 C-5.09399739 0.74335022 -3.20395416 0 0 0 Z " fill="#2C2D2D" transform="translate(392,286)"/>
<path d="M0 0 C0.33 0 0.66 0 1 0 C1.11638036 3.24969769 1.18730581 6.4988583 1.25 9.75 C1.30027344 11.13058594 1.30027344 11.13058594 1.3515625 12.5390625 C1.45112665 19.40898911 1.45112665 19.40898911 -1.015625 22.640625 C-1.67046875 23.08921875 -2.3253125 23.5378125 -3 24 C-3.66 23.67 -4.32 23.34 -5 23 C-4.525625 22.21625 -4.05125 21.4325 -3.5625 20.625 C-0.98740038 16.29883264 -0.69874235 12.83432207 -0.4375 7.875 C-0.37272461 6.74384766 -0.37272461 6.74384766 -0.30664062 5.58984375 C-0.2005168 3.72678112 -0.09974999 1.86341476 0 0 Z " fill="#E3F4FA" transform="translate(348,244)"/>
<path d="M0 0 C2.475 0.99 2.475 0.99 5 2 C5 3.65 5 5.3 5 7 C4.01 7 3.02 7 2 7 C1.34 7.66 0.68 8.32 0 9 C-1.15941038 5.52176885 -0.70820884 3.54104422 0 0 Z " fill="#2A2828" transform="translate(361,323)"/>
<path d="M0 0 C0.33 0 0.66 0 1 0 C1.33 2.97 1.66 5.94 2 9 C0 7.75 0 7.75 -2 6 C-2 4.68 -2 3.36 -2 2 C-6.95 2 -11.9 2 -17 2 C-17 1.67 -17 1.34 -17 1 C-15.85660156 1.01160156 -14.71320313 1.02320313 -13.53515625 1.03515625 C-12.04427246 1.04453288 -10.55338691 1.05363321 -9.0625 1.0625 C-8.30775391 1.07087891 -7.55300781 1.07925781 -6.77539062 1.08789062 C-4.85005687 1.09652441 -2.92464419 1.05224333 -1 1 C-0.67 0.67 -0.34 0.34 0 0 Z " fill="#464443" transform="translate(337,309)"/>
<path d="M0 0 C0.99 0 1.98 0 3 0 C3 4.62 3 9.24 3 14 C2.01 14.33 1.02 14.66 0 15 C0 10.05 0 5.1 0 0 Z " fill="#C8E4F4" transform="translate(269,213)"/>
<path d="M0 0 C0 3.23655184 -0.6550847 4.78752639 -2 7.6875 C-2.556875 8.89986328 -2.556875 8.89986328 -3.125 10.13671875 C-3.41375 10.75160156 -3.7025 11.36648437 -4 12 C-5.65 12 -7.3 12 -9 12 C-6.2520787 7.72545575 -3.30749011 3.85873847 0 0 Z " fill="#305B7F" transform="translate(427,137)"/>
<path d="M0 0 C0.33 1.32 0.66 2.64 1 4 C0.071875 4.391875 -0.85625 4.78375 -1.8125 5.1875 C-5.28181855 7.16024977 -6.11964925 8.59746054 -8 12 C-8.99 12.33 -9.98 12.66 -11 13 C-9.56179563 7.72658399 -5.9961885 4.50608991 -2 1 C-1.34 0.67 -0.68 0.34 0 0 Z " fill="#CAEAF7" transform="translate(459,129)"/>
<path d="M0 0 C3.54110545 0.36281818 5.03550596 1.74767264 7.25 4.4375 C7.77078125 5.05496094 8.2915625 5.67242187 8.828125 6.30859375 C10 8 10 8 10 10 C9.01 10 8.02 10 7 10 C6.649375 9.030625 6.29875 8.06125 5.9375 7.0625 C4.24996333 3.60565398 4.24996333 3.60565398 0.3125 3.125 C-1.3271875 3.063125 -1.3271875 3.063125 -3 3 C-1.75 1.4375 -1.75 1.4375 0 0 Z " fill="#265B83" transform="translate(490,125)"/>
<path d="M0 0 C0.66 0.33 1.32 0.66 2 1 C2.73075648 3.3140622 3.40138258 5.64828869 4 8 C1.69 8.33 -0.62 8.66 -3 9 C-2.01 6.03 -1.02 3.06 0 0 Z " fill="#DCF0F9" transform="translate(60,244)"/>
<path d="M0 0 C2.49118953 3.7367843 2.2065226 5.74451819 2.125 10.1875 C2.10695313 11.45980469 2.08890625 12.73210937 2.0703125 14.04296875 C2.03550781 15.50669922 2.03550781 15.50669922 2 17 C1.67 17 1.34 17 1 17 C0.67 15.02 0.34 13.04 0 11 C-0.33 11 -0.66 11 -1 11 C-1.0270043 9.54176788 -1.04639787 8.08339325 -1.0625 6.625 C-1.07410156 5.81289062 -1.08570313 5.00078125 -1.09765625 4.1640625 C-1 2 -1 2 0 0 Z " fill="#E0F8FB" transform="translate(517,177)"/>
<path d="M0 0 C0.66 0.33 1.32 0.66 2 1 C2 1.99 2 2.98 2 4 C-4.35294118 6.64705882 -4.35294118 6.64705882 -7 7 C-7.99 6.34 -8.98 5.68 -10 5 C-8.38007835 4.13624104 -6.75388139 3.28424146 -5.125 2.4375 C-4.22007812 1.96183594 -3.31515625 1.48617187 -2.3828125 0.99609375 C-1.20332031 0.50302734 -1.20332031 0.50302734 0 0 Z " fill="#DCECF3" transform="translate(458,217)"/>
<path d="M0 0 C5.94 0 11.88 0 18 0 C18 1.32 18 2.64 18 4 C15.525 3.505 15.525 3.505 13 3 C13 2.67 13 2.34 13 2 C8.71 1.67 4.42 1.34 0 1 C0 0.67 0 0.34 0 0 Z " fill="#100E0F" transform="translate(294,327)"/>
<path d="M0 0 C2 2 2 2 2.4375 4.875 C2 8 2 8 -0.5 10.375 C-1.325 10.91125 -2.15 11.4475 -3 12 C-2.49202991 7.6822542 -1.80317221 3.96697886 0 0 Z " fill="#0F598C" transform="translate(90,231)"/>
<path d="M0 0 C2.31 0 4.62 0 7 0 C7 0.66 7 1.32 7 2 C8.32 1.67 9.64 1.34 11 1 C10.67 2.65 10.34 4.3 10 6 C9.34 6 8.68 6 8 6 C8 6.66 8 7.32 8 8 C7.34 7.67 6.68 7.34 6 7 C6.33 6.34 6.66 5.68 7 5 C6.34 5 5.68 5 5 5 C5.33 3.68 5.66 2.36 6 1 C4.02 1 2.04 1 0 1 C0 0.67 0 0.34 0 0 Z " fill="#32322F" transform="translate(375,305)"/>
<path d="M0 0 C1.8709949 2.80649235 3.23017952 5.49960473 4.625 8.5625 C5.07101563 9.53316406 5.51703125 10.50382813 5.9765625 11.50390625 C7 14 7 14 7 16 C6.34 16 5.68 16 5 16 C1.45215029 10.62100206 0.29112169 6.41923331 0 0 Z " fill="#1C5B92" transform="translate(27,223)"/>
<path d="M0 0 C-0.33 0.598125 -0.66 1.19625 -1 1.8125 C-2.20787988 4.05386471 -2.20787988 4.05386471 -2 7 C-3.32 6.67 -4.64 6.34 -6 6 C-6.33 4.68 -6.66 3.36 -7 2 C-4.35261084 0.5393715 -3.10551666 0 0 0 Z " fill="#165989" transform="translate(448,210)"/>
<path d="M0 0 C1.125 3.75 1.125 3.75 0 6 C-0.66 6 -1.32 6 -2 6 C-2 7.98 -2 9.96 -2 12 C-2.99 12.33 -3.98 12.66 -5 13 C-4.54996653 7.37458159 -3.31558515 4.38512875 0 0 Z " fill="#185893" transform="translate(438,130)"/>
<path d="M0 0 C0.66 0.33 1.32 0.66 2 1 C1.67 2.65 1.34 4.3 1 6 C0.01 6.33 -0.98 6.66 -2 7 C-1.67 7.66 -1.34 8.32 -1 9 C-3.31 9 -5.62 9 -8 9 C-5.47211993 6.20127563 -3.79588866 4.54226981 0 4 C-0.33 3.01 -0.66 2.02 -1 1 C-0.67 0.67 -0.34 0.34 0 0 Z " fill="#D9ECF7" transform="translate(500,131)"/>
<path d="M0 0 C0.66 0 1.32 0 2 0 C2.39169887 2.66355234 2.40564529 4.39224373 0.88671875 6.66796875 C-0.36389317 8.1510888 -1.67864514 9.57954352 -3 11 C-3.33 10.01 -3.66 9.02 -4 8 C-3.34 8 -2.68 8 -2 8 C-2 6.02 -2 4.04 -2 2 C-1.34 2 -0.68 2 0 2 C0 1.34 0 0.68 0 0 Z " fill="#005DB2" transform="translate(438,134)"/>
<path d="M0 0 C0.66 0 1.32 0 2 0 C2.1875 2.875 2.1875 2.875 2 6 C1.01 6.66 0.02 7.32 -1 8 C-1.99 7.01 -2.98 6.02 -4 5 C-2.71937515 3.2925002 -1.38232443 1.62626404 0 0 Z " fill="#171717" transform="translate(354,296)"/>
<path d="M0 0 C0.66 0 1.32 0 2 0 C1.64267506 2.59060578 1.1383604 3.84567494 -0.625 5.8125 C-3.99131438 7.49565719 -6.4017945 6.76115885 -10 6 C-10 5.67 -10 5.34 -10 5 C-8.906875 4.731875 -7.81375 4.46375 -6.6875 4.1875 C-3.26833673 3.08641352 -2.22408019 2.57525074 0 0 Z " fill="#D9F1F9" transform="translate(199,264)"/>
<path d="M0 0 C0.66 0.33 1.32 0.66 2 1 C2 1.66 2 2.32 2 3 C1.34 3 0.68 3 0 3 C0.62628423 5.04689196 0.62628423 5.04689196 2 7 C4.41679707 7.70176588 4.41679707 7.70176588 7.125 7.75 C8.03507812 7.80671875 8.94515625 7.8634375 9.8828125 7.921875 C10.58148438 7.94765625 11.28015625 7.9734375 12 8 C12 8.33 12 8.66 12 9 C8.04 9 4.08 9 0 9 C-1.36623674 6.26752652 -1.128426 4.01801098 -1 1 C-0.67 0.67 -0.34 0.34 0 0 Z " fill="#0F5480" transform="translate(22,261)"/>
<path d="M0 0 C0.66 0 1.32 0 2 0 C1.39301257 4.12751449 -0.03810791 7.3321148 -2 11 C-2.66 11 -3.32 11 -4 11 C-4.33 9.68 -4.66 8.36 -5 7 C-4.01 7.33 -3.02 7.66 -2 8 C-1.855625 6.865625 -1.71125 5.73125 -1.5625 4.5625 C-1 1 -1 1 0 0 Z " fill="#BCE5F6" transform="translate(88,231)"/>
<path d="M0 0 C0 4.0333534 -1.60879918 5.83517538 -4 9 C-4.66 9 -5.32 9 -6 9 C-6 8.34 -6 7.68 -6 7 C-6.66 6.67 -7.32 6.34 -8 6 C-5.36 4.02 -2.72 2.04 0 0 Z " fill="#DFF5FB" transform="translate(497,222)"/>
<path d="M0 0 C2 2 2 2 2.125 5.125 C2.08375 6.07375 2.0425 7.0225 2 8 C0.35 8.33 -1.3 8.66 -3 9 C-2.01 6.03 -1.02 3.06 0 0 Z " fill="#1C65A0" transform="translate(46,218)"/>
<path d="M0 0 C0.99 1.32 1.98 2.64 3 4 C2.04663979 5.31611677 1.08714226 6.62778961 0.125 7.9375 C-0.40867187 8.66839844 -0.94234375 9.39929688 -1.4921875 10.15234375 C-3 12 -3 12 -5 13 C-4.731875 12.34 -4.46375 11.68 -4.1875 11 C-2.74294953 7.35060933 -1.37128822 3.67754567 0 0 Z " fill="#466A90" transform="translate(517,198)"/>
<path d="M0 0 C4 5 4 5 8 10 C4.20866644 9.45838092 2.33890436 8.00716275 0 5 C-0.25 2.25 -0.25 2.25 0 0 Z " fill="#144B78" transform="translate(448,158)"/>
<path d="M0 0 C-1.40742064 3.51855159 -2.66466523 4.38612834 -6 6 C-6.33 6.99 -6.66 7.98 -7 9 C-7.66 9 -8.32 9 -9 9 C-8.44706396 4.02357564 -5.06735917 0 0 0 Z " fill="#0B538A" transform="translate(448,123)"/>
<path d="M0 0 C0.66 0 1.32 0 2 0 C2 2.97 2 5.94 2 9 C1.01 9 0.02 9 -1 9 C-1.09765625 2.84765625 -1.09765625 2.84765625 -1 1 C-0.67 0.67 -0.34 0.34 0 0 Z " fill="#0E0A06" transform="translate(384,316)"/>
<path d="M0 0 C2.6855594 2.6855594 3.06049974 5.37621328 4 9 C3.34 9 2.68 9 2 9 C2 9.66 2 10.32 2 11 C1.34 11 0.68 11 0 11 C0 7.37 0 3.74 0 0 Z " fill="#D8F0FA" transform="translate(0,217)"/>
<path d="M0 0 C1.14926266 0.95421808 2.29430541 1.91352045 3.4375 2.875 C4.07558594 3.40867188 4.71367187 3.94234375 5.37109375 4.4921875 C7 6 7 6 8 8 C5.69 7.67 3.38 7.34 1 7 C0.67 4.69 0.34 2.38 0 0 Z " fill="#D5F3F9" transform="translate(442,174)"/>
<path d="M0 0 C1.32 0 2.64 0 4 0 C4.1875 2.8125 4.1875 2.8125 4 6 C3.01 6.99 2.02 7.98 1 9 C0.67 6.03 0.34 3.06 0 0 Z " fill="#0A0C0C" transform="translate(341,286)"/>
<path d="M0 0 C-0.66 1.32 -1.32 2.64 -2 4 C-2.99 4 -3.98 4 -5 4 C-5.33 5.32 -5.66 6.64 -6 8 C-6.66 8 -7.32 8 -8 8 C-7.6641593 4.89347355 -7.40950721 3.39585697 -5.125 1.1875 C-3 0 -3 0 0 0 Z " fill="#145D8B" transform="translate(362,215)"/>
<path d="M0 0 C3.39417765 3.12621626 5.6062718 5.56541027 7 10 C6.38125 9.2884375 6.38125 9.2884375 5.75 8.5625 C3.817815 6.83733482 2.51807725 6.43415125 0 6 C0 4.02 0 2.04 0 0 Z " fill="#195779" transform="translate(499,175)"/>
<path d="M0 0 C4.55015893 1.51671964 6.50057264 5.16891053 9 9 C8.01 9.33 7.02 9.66 6 10 C6 9.01 6 8.02 6 7 C5.38125 6.773125 4.7625 6.54625 4.125 6.3125 C1.38589791 4.62070165 0.94975528 3.00755839 0 0 Z " fill="#1A5B84" transform="translate(476,150)"/>
<path d="M0 0 C0.33 0 0.66 0 1 0 C1.33 3.63 1.66 7.26 2 11 C1.01 11.33 0.02 11.66 -1 12 C-1.02687279 10.18757948 -1.04633715 8.37504767 -1.0625 6.5625 C-1.07410156 5.55316406 -1.08570313 4.54382813 -1.09765625 3.50390625 C-1 1 -1 1 0 0 Z " fill="#070707" transform="translate(216,310)"/>
<path d="M0 0 C0.99 0 1.98 0 3 0 C3 1.98 3 3.96 3 6 C3.66 6 4.32 6 5 6 C5.625 7.875 5.625 7.875 6 10 C5.34 10.66 4.68 11.32 4 12 C3.3291288 10.3767313 2.66342971 8.75132422 2 7.125 C1.62875 6.22007812 1.2575 5.31515625 0.875 4.3828125 C0 2 0 2 0 0 Z " fill="#14588C" transform="translate(12,244)"/>
<path d="M0 0 C3.3 0 6.6 0 10 0 C10 0.99 10 1.98 10 3 C10.66 3 11.32 3 12 3 C11.67 3.99 11.34 4.98 11 6 C10.505 5.319375 10.505 5.319375 10 4.625 C6.9622157 2.15680026 3.80812939 1.81156856 0 1 C0 0.67 0 0.34 0 0 Z " fill="#C7EBF7" transform="translate(408,234)"/>
<path d="M0 0 C3.465 1.485 3.465 1.485 7 3 C6.01 4.485 6.01 4.485 5 6 C2.375 6.1875 2.375 6.1875 0 6 C0 4.02 0 2.04 0 0 Z " fill="#120F10" transform="translate(286,324)"/>
<path d="M0 0 C2.34914492 2.34914492 2.73140357 3.95679446 3.625 7.125 C3.88539062 8.03507813 4.14578125 8.94515625 4.4140625 9.8828125 C4.70410156 10.93082031 4.70410156 10.93082031 5 12 C3.046875 11.3203125 3.046875 11.3203125 1 10 C0.390625 7.6171875 0.390625 7.6171875 0.25 4.875 C0.19328125 3.96492187 0.1365625 3.05484375 0.078125 2.1171875 C0.05234375 1.41851562 0.0265625 0.71984375 0 0 Z " fill="#C3E5F4" transform="translate(7,234)"/>
<path d="M0 0 C2.96052484 3.36423277 3.92289822 6.69159287 5 11 C4.01 11 3.02 11 2 11 C0.57741188 7.17679443 -0.24042276 4.08718695 0 0 Z " fill="#1C5A8D" transform="translate(78,227)"/>
<path d="M0 0 C0.66 0 1.32 0 2 0 C3.125 5.75 3.125 5.75 2 8 C0.68 6.68 -0.64 5.36 -2 4 C-1.34 2.68 -0.68 1.36 0 0 Z " fill="#1A5889" transform="translate(460,230)"/>
<path d="M0 0 C0.33 0 0.66 0 1 0 C1 5.61 1 11.22 1 17 C0.01 17.33 -0.98 17.66 -2 18 C-1.34 12.06 -0.68 6.12 0 0 Z " fill="#B8DFED" transform="translate(509,192)"/>
<path d="M0 0 C0.66 0.33 1.32 0.66 2 1 C0.68 2.65 -0.64 4.3 -2 6 C-3.65 5.67 -5.3 5.34 -7 5 C-2.25 1.125 -2.25 1.125 0 0 Z " fill="#E4F7FB" transform="translate(438,200)"/>
<path d="M0 0 C0 0.99 0 1.98 0 3 C0.66 3.33 1.32 3.66 2 4 C0.02 4.33 -1.96 4.66 -4 5 C-4.33 3.68 -4.66 2.36 -5 1 C-2 0 -2 0 0 0 Z " fill="#1D1D1D" transform="translate(213,324)"/>
<path d="M0 0 C0.99 0 1.98 0 3 0 C3 0.99 3 1.98 3 3 C-1.455 3.495 -1.455 3.495 -6 4 C-5.34 3.01 -4.68 2.02 -4 1 C-2.68 1.33 -1.36 1.66 0 2 C0 1.34 0 0.68 0 0 Z " fill="#0C0909" transform="translate(406,318)"/>
<path d="M0 0 C2.17854707 3.2678206 3.49760034 6.38058265 5 10 C4.01 10.495 4.01 10.495 3 11 C2.34 10.67 1.68 10.34 1 10 C0.5859375 7.71484375 0.5859375 7.71484375 0.375 4.9375 C0.30023437 4.01839844 0.22546875 3.09929687 0.1484375 2.15234375 C0.09945313 1.44207031 0.05046875 0.73179687 0 0 Z " fill="#D8F4F8" transform="translate(18,261)"/>
<path d="M0 0 C0.66 0.33 1.32 0.66 2 1 C1.375 2.9375 1.375 2.9375 0 5 C-2.875 5.6875 -2.875 5.6875 -6 6 C-7.33737094 6.31674575 -8.67288808 6.64270064 -10 7 C-7.20283196 3.70921407 -3.80471422 1.93694542 0 0 Z " fill="#DDEDF3" transform="translate(480,233)"/>
<path d="M0 0 C-0.875 3.875 -0.875 3.875 -2 5 C-3.66617115 5.04063832 -5.33388095 5.042721 -7 5 C-7 4.34 -7 3.68 -7 3 C-2.61538462 0 -2.61538462 0 0 0 Z " fill="#1B5696" transform="translate(462,201)"/>
<path d="M0 0 C0.66 0.33 1.32 0.66 2 1 C1.525625 1.680625 1.05125 2.36125 0.5625 3.0625 C-1.2225636 6.41841956 -1.63153086 9.24161481 -2 13 C-2.33 13 -2.66 13 -3 13 C-3.08121924 11.39667209 -3.13929134 9.79215974 -3.1875 8.1875 C-3.22230469 7.29417969 -3.25710938 6.40085938 -3.29296875 5.48046875 C-2.95081002 2.58352485 -2.24606427 1.77444972 0 0 Z " fill="#155788" transform="translate(279,216)"/>
<path d="M0 0 C2.33333333 2.33333333 4.66666667 4.66666667 7 7 C6.67 7.99 6.34 8.98 6 10 C2.51668565 6.98112756 1.20842856 4.43090471 0 0 Z " fill="#225F93" transform="translate(513,148)"/>
<path d="M0 0 C3 1 3 1 5 2 C5 2.66 5 3.32 5 4 C5.99 4.33 6.98 4.66 8 5 C7.67 5.99 7.34 6.98 7 8 C7 7.34 7 6.68 7 6 C6.21625 5.7525 5.4325 5.505 4.625 5.25 C1.67682892 3.84610901 1.0975223 2.99324263 0 0 Z " fill="#105283" transform="translate(497,150)"/>
<path d="M0 0 C0.66 0 1.32 0 2 0 C2 0.99 2 1.98 2 3 C5.465 2.505 5.465 2.505 9 2 C8.67 2.66 8.34 3.32 8 4 C4.9375 4.625 4.9375 4.625 2 5 C1.34 3.35 0.68 1.7 0 0 Z " fill="#282626" transform="translate(319,330)"/>
<path d="M0 0 C1.32 1.32 2.64 2.64 4 4 C2.625 5.5 2.625 5.5 1 7 C0.34 7 -0.32 7 -1 7 C-1.33 6.01 -1.66 5.02 -2 4 C-1.34 3.34 -0.68 2.68 0 2 C0 1.34 0 0.68 0 0 Z " fill="#2D2D2B" transform="translate(401,307)"/>
<path d="M0 0 C1.2065625 0.0309375 1.2065625 0.0309375 2.4375 0.0625 C2.1075 0.7225 1.7775 1.3825 1.4375 2.0625 C-1.57740557 3.06746852 -3.60431692 3.16585303 -6.75 3.125 C-8.10158203 3.11146484 -8.10158203 3.11146484 -9.48046875 3.09765625 C-10.16753906 3.08605469 -10.85460937 3.07445312 -11.5625 3.0625 C-11.5625 2.7325 -11.5625 2.4025 -11.5625 2.0625 C-9.51171875 1.83463542 -7.4609375 1.60677083 -5.41015625 1.37890625 C-2.80458624 0.93270927 -2.89290947 0.07055877 0 0 Z " fill="#19588F" transform="translate(338.5625,266.9375)"/>
<path d="M0 0 C0.66 0.33 1.32 0.66 2 1 C2 3.64 2 6.28 2 9 C1.01 9.495 1.01 9.495 0 10 C-0.19412181 8.52168779 -0.38012131 7.04230684 -0.5625 5.5625 C-0.66691406 4.73878906 -0.77132813 3.91507813 -0.87890625 3.06640625 C-0.91886719 2.38449219 -0.95882813 1.70257813 -1 1 C-0.67 0.67 -0.34 0.34 0 0 Z " fill="#045092" transform="translate(401,247)"/>
<path d="M0 0 C2.5 2.3125 2.5 2.3125 5 5 C5 5.99 5 6.98 5 8 C3.68 7.67 2.36 7.34 1 7 C0.67 4.69 0.34 2.38 0 0 Z " fill="#1F5487" transform="translate(424,174)"/>
<path d="M0 0 C0.66 0.33 1.32 0.66 2 1 C-2.30769231 5.92307692 -2.30769231 5.92307692 -5.8125 6.3125 C-6.8953125 6.1578125 -6.8953125 6.1578125 -8 6 C-5.63404067 3.38499232 -3.13950774 1.61000397 0 0 Z " fill="#D1EAF2" transform="translate(472,121)"/>
<path d="M0 0 C1.98 0 3.96 0 6 0 C6 0.99 6 1.98 6 3 C3.69 3 1.38 3 -1 3 C-0.67 2.01 -0.34 1.02 0 0 Z " fill="#050503" transform="translate(388,302)"/>
<path d="M0 0 C0.99 0 1.98 0 3 0 C3.625 2.375 3.625 2.375 4 5 C3.34 5.66 2.68 6.32 2 7 C0 4 0 4 0 0 Z " fill="#0056AE" transform="translate(69,252)"/>
<path d="M0 0 C0.66 0 1.32 0 2 0 C0.375 6.75 0.375 6.75 -3 9 C-2.01 6.03 -1.02 3.06 0 0 Z " fill="#23648C" transform="translate(94,222)"/>
<path d="M0 0 C1.4606285 2.64738916 2 3.89448334 2 7 C1.01 7.66 0.02 8.32 -1 9 C-1.33 7.68 -1.66 6.36 -2 5 C-1.34 5 -0.68 5 0 5 C0 3.35 0 1.7 0 0 Z " fill="#115187" transform="translate(520,193)"/>
<path d="M0 0 C2.4375 0.6875 2.4375 0.6875 5 2 C5.8125 4.625 5.8125 4.625 6 7 C3.95880212 5.38405168 1.95927063 3.7143618 0 2 C0 1.34 0 0.68 0 0 Z " fill="#18618B" transform="translate(441,171)"/>
<path d="M0 0 C-1.98 1.32 -3.96 2.64 -6 4 C-6.66 3.67 -7.32 3.34 -8 3 C-8 2.34 -8 1.68 -8 1 C-3.375 -1.125 -3.375 -1.125 0 0 Z " fill="#13577C" transform="translate(483,115)"/>
<path d="M0 0 C0 3 0 3 -1 5 C-0.34 5 0.32 5 1 5 C1 5.99 1 6.98 1 8 C0.34 8 -0.32 8 -1 8 C-1 7.34 -1 6.68 -1 6 C-1.99 5.67 -2.98 5.34 -4 5 C-2.68 3.35 -1.36 1.7 0 0 Z " fill="#312F2C" transform="translate(375,318)"/>
<path d="M0 0 C0 0.99 0 1.98 0 3 C-3.47325181 4.1577506 -6.36067448 4.06866652 -10 4 C-6.71536341 1.81024227 -3.79303725 1.00193437 0 0 Z " fill="#CDEAF5" transform="translate(419,267)"/>
<path d="M0 0 C0.66 0.99 1.32 1.98 2 3 C0.68 5.31 -0.64 7.62 -2 10 C-2.99 9.67 -3.98 9.34 -5 9 C-4.54625 8.62875 -4.0925 8.2575 -3.625 7.875 C-1.52970606 5.45735315 -0.87986715 3.04569398 0 0 Z " fill="#DDF4F9" transform="translate(102,262)"/>
<path d="M0 0 C1.32 0 2.64 0 4 0 C3.67 1.65 3.34 3.3 3 5 C2.01 5.33 1.02 5.66 0 6 C0 4.02 0 2.04 0 0 Z " fill="#0D5A8E" transform="translate(196,260)"/>
<path d="M0 0 C1.65 0 3.3 0 5 0 C5.33 1.32 5.66 2.64 6 4 C5.01 3.34 4.02 2.68 3 2 C2.34 3.32 1.68 4.64 1 6 C0.67 4.02 0.34 2.04 0 0 Z " fill="#125D95" transform="translate(19,260)"/>
<path d="M0 0 C0.33 0 0.66 0 1 0 C1.25 5.625 1.25 5.625 -1 9 C-1.66 9 -2.32 9 -3 9 C-2.01 6.03 -1.02 3.06 0 0 Z " fill="#CAEAF4" transform="translate(120,218)"/>
<path d="M0 0 C2.97 0 5.94 0 9 0 C7.25 1.5625 7.25 1.5625 5 3 C2.8125 2.8125 2.8125 2.8125 1 2 C0.67 1.34 0.34 0.68 0 0 Z " fill="#1A577E" transform="translate(446,219)"/>
<path d="M0 0 C0.33 0 0.66 0 1 0 C1 2.64 1 5.28 1 8 C0.01 7.67 -0.98 7.34 -2 7 C-1.125 1.125 -1.125 1.125 0 0 Z " fill="#1F5C88" transform="translate(493,204)"/>
<path d="M0 0 C-2.97 1.65 -5.94 3.3 -9 5 C-9 4.34 -9 3.68 -9 3 C-8.34 3 -7.68 3 -7 3 C-6.67 2.01 -6.34 1.02 -6 0 C-3 -1 -3 -1 0 0 Z " fill="#D5E9F6" transform="translate(463,200)"/>
<path d="M0 0 C0.99 0 1.98 0 3 0 C5 3 5 3 4.625 5.6875 C4.41875 6.450625 4.2125 7.21375 4 8 C2.22293791 5.33440687 1.12451727 2.9719385 0 0 Z " fill="#1B638F" transform="translate(515,172)"/>
<path d="M0 0 C0.33 0 0.66 0 1 0 C1.66 2.97 2.32 5.94 3 9 C2.01 9.495 2.01 9.495 1 10 C-1.56687367 6.1496895 -0.83288724 4.41430237 0 0 Z " fill="#DBF1FA" transform="translate(460,147)"/>
<path d="M0 0 C0.99 0.33 1.98 0.66 3 1 C1.7934375 1.37125 1.7934375 1.37125 0.5625 1.75 C-2.171081 2.72238859 -2.171081 2.72238859 -2.8125 5.125 C-2.9053125 6.053125 -2.9053125 6.053125 -3 7 C-3.66 6.67 -4.32 6.34 -5 6 C-3.63016497 2.83884224 -3.0109362 2.0072908 0 0 Z " fill="#154F78" transform="translate(468,138)"/>
<path d="M0 0 C1.32 0.33 2.64 0.66 4 1 C2.25 4.875 2.25 4.875 0 6 C0 4.02 0 2.04 0 0 Z " fill="#191919" transform="translate(357,292)"/>
<path d="M0 0 C1.98 0.99 1.98 0.99 4 2 C3.01 4.31 2.02 6.62 1 9 C0.08941469 5.92677456 -0.08886184 3.19902639 0 0 Z " fill="#E8F7F4" transform="translate(90,222)"/>
<path d="M0 0 C0.99 0.33 1.98 0.66 3 1 C3.33 3.31 3.66 5.62 4 8 C1.10067643 5.60490662 0.49831724 3.68754757 0 0 Z " fill="#0A508B" transform="translate(2,219)"/>
<path d="M0 0 C1.98 0 3.96 0 6 0 C6 1.65 6 3.3 6 5 C2.83884224 3.63016497 2.0072908 3.0109362 0 0 Z " fill="#10548C" transform="translate(506,161)"/>
<path d="M0 0 C2.1875 0.3125 2.1875 0.3125 4 1 C3.67 1.99 3.34 2.98 3 4 C0.03 3.505 0.03 3.505 -3 3 C-1.75 1.4375 -1.75 1.4375 0 0 Z " fill="#1E4B80" transform="translate(507,144)"/>
<path d="M0 0 C0.33 1.32 0.66 2.64 1 4 C-0.98 4.33 -2.96 4.66 -5 5 C-3.35 3.35 -1.7 1.7 0 0 Z " fill="#D7F3FD" transform="translate(459,129)"/>
</svg>
